ISO-10303-21;
HEADER;
/* Generated by software containing ST-Developer
 * from STEP Tools, Inc. (www.steptools.com) 
 */

FILE_DESCRIPTION(
/* description */ (''),
/* implementation_level */ '2;1');

FILE_NAME(
/* name */ 'Go Kart Spoiler.step',
/* time_stamp */ '2026-07-18T21:40:15-06:00',
/* author */ (''),
/* organization */ (''),
/* preprocessor_version */ 'ST-DEVELOPER v20.1',
/* originating_system */ 'Autodesk Translation Framework v15.8.0.0',
/* authorisation */ '');

FILE_SCHEMA (('AUTOMOTIVE_DESIGN { 1 0 10303 214 3 1 1 }'));
ENDSEC;

DATA;
#10=MECHANICAL_DESIGN_GEOMETRIC_PRESENTATION_REPRESENTATION('',(#13,#14,
#15),#819);
#11=SHAPE_REPRESENTATION_RELATIONSHIP('SRR','None',#826,#12);
#12=ADVANCED_BREP_SHAPE_REPRESENTATION('',(#16,#17,#18),#818);
#13=STYLED_ITEM('',(#835),#16);
#14=STYLED_ITEM('',(#835),#17);
#15=STYLED_ITEM('',(#835),#18);
#16=MANIFOLD_SOLID_BREP('Body1',#509);
#17=MANIFOLD_SOLID_BREP('Body5',#510);
#18=MANIFOLD_SOLID_BREP('Body6',#511);
#19=FACE_BOUND('',#56,.T.);
#20=FACE_BOUND('',#57,.T.);
#21=FACE_OUTER_BOUND('',#49,.T.);
#22=FACE_OUTER_BOUND('',#50,.T.);
#23=FACE_OUTER_BOUND('',#51,.T.);
#24=FACE_OUTER_BOUND('',#52,.T.);
#25=FACE_OUTER_BOUND('',#53,.T.);
#26=FACE_OUTER_BOUND('',#54,.T.);
#27=FACE_OUTER_BOUND('',#55,.T.);
#28=FACE_OUTER_BOUND('',#58,.T.);
#29=FACE_OUTER_BOUND('',#59,.T.);
#30=FACE_OUTER_BOUND('',#60,.T.);
#31=FACE_OUTER_BOUND('',#61,.T.);
#32=FACE_OUTER_BOUND('',#62,.T.);
#33=FACE_OUTER_BOUND('',#63,.T.);
#34=FACE_OUTER_BOUND('',#64,.T.);
#35=FACE_OUTER_BOUND('',#65,.T.);
#36=FACE_OUTER_BOUND('',#66,.T.);
#37=FACE_OUTER_BOUND('',#67,.T.);
#38=FACE_OUTER_BOUND('',#68,.T.);
#39=FACE_OUTER_BOUND('',#69,.T.);
#40=FACE_OUTER_BOUND('',#70,.T.);
#41=FACE_OUTER_BOUND('',#71,.T.);
#42=FACE_OUTER_BOUND('',#72,.T.);
#43=FACE_OUTER_BOUND('',#73,.T.);
#44=FACE_OUTER_BOUND('',#74,.T.);
#45=FACE_OUTER_BOUND('',#75,.T.);
#46=FACE_OUTER_BOUND('',#76,.T.);
#47=FACE_OUTER_BOUND('',#77,.T.);
#48=FACE_OUTER_BOUND('',#78,.T.);
#49=EDGE_LOOP('',(#321,#322,#323,#324));
#50=EDGE_LOOP('',(#325,#326,#327,#328));
#51=EDGE_LOOP('',(#329,#330,#331,#332,#333,#334));
#52=EDGE_LOOP('',(#335,#336,#337,#338));
#53=EDGE_LOOP('',(#339,#340,#341,#342));
#54=EDGE_LOOP('',(#343,#344,#345,#346));
#55=EDGE_LOOP('',(#347,#348,#349,#350));
#56=EDGE_LOOP('',(#351,#352,#353,#354));
#57=EDGE_LOOP('',(#355,#356,#357,#358));
#58=EDGE_LOOP('',(#359,#360,#361,#362));
#59=EDGE_LOOP('',(#363,#364,#365,#366));
#60=EDGE_LOOP('',(#367,#368,#369,#370,#371,#372));
#61=EDGE_LOOP('',(#373,#374,#375,#376));
#62=EDGE_LOOP('',(#377,#378,#379,#380,#381,#382));
#63=EDGE_LOOP('',(#383,#384,#385,#386));
#64=EDGE_LOOP('',(#387,#388,#389,#390));
#65=EDGE_LOOP('',(#391,#392,#393,#394));
#66=EDGE_LOOP('',(#395,#396,#397,#398,#399,#400));
#67=EDGE_LOOP('',(#401,#402,#403,#404,#405,#406,#407,#408));
#68=EDGE_LOOP('',(#409,#410,#411,#412,#413,#414,#415,#416));
#69=EDGE_LOOP('',(#417,#418,#419,#420));
#70=EDGE_LOOP('',(#421,#422,#423,#424));
#71=EDGE_LOOP('',(#425,#426,#427,#428));
#72=EDGE_LOOP('',(#429,#430,#431));
#73=EDGE_LOOP('',(#432,#433,#434));
#74=EDGE_LOOP('',(#435,#436,#437,#438));
#75=EDGE_LOOP('',(#439,#440,#441,#442));
#76=EDGE_LOOP('',(#443,#444,#445,#446));
#77=EDGE_LOOP('',(#447,#448,#449));
#78=EDGE_LOOP('',(#450,#451,#452));
#79=LINE('',#681,#145);
#80=LINE('',#683,#146);
#81=LINE('',#685,#147);
#82=LINE('',#686,#148);
#83=LINE('',#690,#149);
#84=LINE('',#692,#150);
#85=LINE('',#694,#151);
#86=LINE('',#695,#152);
#87=LINE('',#699,#153);
#88=LINE('',#701,#154);
#89=LINE('',#703,#155);
#90=LINE('',#705,#156);
#91=LINE('',#707,#157);
#92=LINE('',#708,#158);
#93=LINE('',#710,#159);
#94=LINE('',#711,#160);
#95=LINE('',#713,#161);
#96=LINE('',#714,#162);
#97=LINE('',#718,#163);
#98=LINE('',#720,#164);
#99=LINE('',#721,#165);
#100=LINE('',#724,#166);
#101=LINE('',#726,#167);
#102=LINE('',#728,#168);
#103=LINE('',#729,#169);
#104=LINE('',#732,#170);
#105=LINE('',#733,#171);
#106=LINE('',#737,#172);
#107=LINE('',#738,#173);
#108=LINE('',#739,#174);
#109=LINE('',#743,#175);
#110=LINE('',#745,#176);
#111=LINE('',#746,#177);
#112=LINE('',#747,#178);
#113=LINE('',#749,#179);
#114=LINE('',#753,#180);
#115=LINE('',#754,#181);
#116=LINE('',#756,#182);
#117=LINE('',#757,#183);
#118=LINE('',#760,#184);
#119=LINE('',#761,#185);
#120=LINE('',#763,#186);
#121=LINE('',#764,#187);
#122=LINE('',#767,#188);
#123=LINE('',#769,#189);
#124=LINE('',#770,#190);
#125=LINE('',#772,#191);
#126=LINE('',#773,#192);
#127=LINE('',#779,#193);
#128=LINE('',#781,#194);
#129=LINE('',#783,#195);
#130=LINE('',#784,#196);
#131=LINE('',#787,#197);
#132=LINE('',#789,#198);
#133=LINE('',#790,#199);
#134=LINE('',#792,#200);
#135=LINE('',#793,#201);
#136=LINE('',#799,#202);
#137=LINE('',#801,#203);
#138=LINE('',#803,#204);
#139=LINE('',#804,#205);
#140=LINE('',#807,#206);
#141=LINE('',#809,#207);
#142=LINE('',#810,#208);
#143=LINE('',#812,#209);
#144=LINE('',#813,#210);
#145=VECTOR('',#557,10.);
#146=VECTOR('',#558,10.);
#147=VECTOR('',#559,10.);
#148=VECTOR('',#560,10.);
#149=VECTOR('',#563,10.);
#150=VECTOR('',#564,10.);
#151=VECTOR('',#565,10.);
#152=VECTOR('',#566,10.);
#153=VECTOR('',#569,10.);
#154=VECTOR('',#570,10.);
#155=VECTOR('',#571,10.);
#156=VECTOR('',#572,10.);
#157=VECTOR('',#573,10.);
#158=VECTOR('',#574,10.);
#159=VECTOR('',#577,10.);
#160=VECTOR('',#578,10.);
#161=VECTOR('',#581,10.);
#162=VECTOR('',#582,10.);
#163=VECTOR('',#587,10.);
#164=VECTOR('',#588,10.);
#165=VECTOR('',#589,10.);
#166=VECTOR('',#590,10.);
#167=VECTOR('',#591,10.);
#168=VECTOR('',#592,10.);
#169=VECTOR('',#593,10.);
#170=VECTOR('',#596,10.);
#171=VECTOR('',#597,10.);
#172=VECTOR('',#600,10.);
#173=VECTOR('',#601,10.);
#174=VECTOR('',#602,10.);
#175=VECTOR('',#605,10.);
#176=VECTOR('',#606,10.);
#177=VECTOR('',#607,10.);
#178=VECTOR('',#608,10.);
#179=VECTOR('',#611,10.);
#180=VECTOR('',#614,10.);
#181=VECTOR('',#615,10.);
#182=VECTOR('',#616,10.);
#183=VECTOR('',#617,10.);
#184=VECTOR('',#620,10.);
#185=VECTOR('',#621,10.);
#186=VECTOR('',#624,10.);
#187=VECTOR('',#625,10.);
#188=VECTOR('',#628,10.);
#189=VECTOR('',#629,10.);
#190=VECTOR('',#630,10.);
#191=VECTOR('',#633,10.);
#192=VECTOR('',#634,10.);
#193=VECTOR('',#641,10.);
#194=VECTOR('',#642,10.);
#195=VECTOR('',#643,10.);
#196=VECTOR('',#644,10.);
#197=VECTOR('',#647,10.);
#198=VECTOR('',#648,10.);
#199=VECTOR('',#649,10.);
#200=VECTOR('',#652,10.);
#201=VECTOR('',#653,10.);
#202=VECTOR('',#660,10.);
#203=VECTOR('',#661,10.);
#204=VECTOR('',#662,10.);
#205=VECTOR('',#663,10.);
#206=VECTOR('',#666,10.);
#207=VECTOR('',#667,10.);
#208=VECTOR('',#668,10.);
#209=VECTOR('',#671,10.);
#210=VECTOR('',#672,10.);
#211=VERTEX_POINT('',#679);
#212=VERTEX_POINT('',#680);
#213=VERTEX_POINT('',#682);
#214=VERTEX_POINT('',#684);
#215=VERTEX_POINT('',#688);
#216=VERTEX_POINT('',#689);
#217=VERTEX_POINT('',#691);
#218=VERTEX_POINT('',#693);
#219=VERTEX_POINT('',#697);
#220=VERTEX_POINT('',#698);
#221=VERTEX_POINT('',#700);
#222=VERTEX_POINT('',#702);
#223=VERTEX_POINT('',#704);
#224=VERTEX_POINT('',#706);
#225=VERTEX_POINT('',#717);
#226=VERTEX_POINT('',#719);
#227=VERTEX_POINT('',#722);
#228=VERTEX_POINT('',#723);
#229=VERTEX_POINT('',#725);
#230=VERTEX_POINT('',#727);
#231=VERTEX_POINT('',#731);
#232=VERTEX_POINT('',#735);
#233=VERTEX_POINT('',#736);
#234=VERTEX_POINT('',#741);
#235=VERTEX_POINT('',#742);
#236=VERTEX_POINT('',#744);
#237=VERTEX_POINT('',#751);
#238=VERTEX_POINT('',#752);
#239=VERTEX_POINT('',#755);
#240=VERTEX_POINT('',#759);
#241=VERTEX_POINT('',#766);
#242=VERTEX_POINT('',#768);
#243=VERTEX_POINT('',#777);
#244=VERTEX_POINT('',#778);
#245=VERTEX_POINT('',#780);
#246=VERTEX_POINT('',#782);
#247=VERTEX_POINT('',#786);
#248=VERTEX_POINT('',#788);
#249=VERTEX_POINT('',#797);
#250=VERTEX_POINT('',#798);
#251=VERTEX_POINT('',#800);
#252=VERTEX_POINT('',#802);
#253=VERTEX_POINT('',#806);
#254=VERTEX_POINT('',#808);
#255=EDGE_CURVE('',#211,#212,#79,.T.);
#256=EDGE_CURVE('',#211,#213,#80,.T.);
#257=EDGE_CURVE('',#214,#213,#81,.T.);
#258=EDGE_CURVE('',#212,#214,#82,.T.);
#259=EDGE_CURVE('',#215,#216,#83,.T.);
#260=EDGE_CURVE('',#216,#217,#84,.T.);
#261=EDGE_CURVE('',#218,#217,#85,.T.);
#262=EDGE_CURVE('',#215,#218,#86,.T.);
#263=EDGE_CURVE('',#219,#220,#87,.T.);
#264=EDGE_CURVE('',#221,#220,#88,.T.);
#265=EDGE_CURVE('',#222,#221,#89,.T.);
#266=EDGE_CURVE('',#222,#223,#90,.T.);
#267=EDGE_CURVE('',#223,#224,#91,.T.);
#268=EDGE_CURVE('',#224,#219,#92,.T.);
#269=EDGE_CURVE('',#216,#212,#93,.T.);
#270=EDGE_CURVE('',#217,#214,#94,.T.);
#271=EDGE_CURVE('',#215,#211,#95,.T.);
#272=EDGE_CURVE('',#213,#218,#96,.T.);
#273=EDGE_CURVE('',#219,#225,#97,.T.);
#274=EDGE_CURVE('',#225,#226,#98,.T.);
#275=EDGE_CURVE('',#226,#220,#99,.T.);
#276=EDGE_CURVE('',#227,#228,#100,.T.);
#277=EDGE_CURVE('',#227,#229,#101,.T.);
#278=EDGE_CURVE('',#229,#230,#102,.T.);
#279=EDGE_CURVE('',#230,#228,#103,.T.);
#280=EDGE_CURVE('',#231,#224,#104,.T.);
#281=EDGE_CURVE('',#231,#225,#105,.T.);
#282=EDGE_CURVE('',#232,#233,#106,.T.);
#283=EDGE_CURVE('',#232,#228,#107,.T.);
#284=EDGE_CURVE('',#233,#230,#108,.T.);
#285=EDGE_CURVE('',#234,#235,#109,.T.);
#286=EDGE_CURVE('',#234,#236,#110,.T.);
#287=EDGE_CURVE('',#236,#226,#111,.T.);
#288=EDGE_CURVE('',#235,#231,#112,.T.);
#289=EDGE_CURVE('',#236,#221,#113,.T.);
#290=EDGE_CURVE('',#237,#238,#114,.T.);
#291=EDGE_CURVE('',#237,#233,#115,.T.);
#292=EDGE_CURVE('',#239,#229,#116,.T.);
#293=EDGE_CURVE('',#238,#239,#117,.T.);
#294=EDGE_CURVE('',#240,#239,#118,.T.);
#295=EDGE_CURVE('',#240,#227,#119,.T.);
#296=EDGE_CURVE('',#237,#235,#120,.T.);
#297=EDGE_CURVE('',#238,#234,#121,.T.);
#298=EDGE_CURVE('',#222,#241,#122,.T.);
#299=EDGE_CURVE('',#241,#242,#123,.T.);
#300=EDGE_CURVE('',#223,#242,#124,.T.);
#301=EDGE_CURVE('',#242,#232,#125,.T.);
#302=EDGE_CURVE('',#241,#240,#126,.T.);
#303=EDGE_CURVE('',#243,#244,#127,.T.);
#304=EDGE_CURVE('',#243,#245,#128,.T.);
#305=EDGE_CURVE('',#246,#245,#129,.T.);
#306=EDGE_CURVE('',#244,#246,#130,.T.);
#307=EDGE_CURVE('',#244,#247,#131,.T.);
#308=EDGE_CURVE('',#248,#246,#132,.T.);
#309=EDGE_CURVE('',#247,#248,#133,.T.);
#310=EDGE_CURVE('',#247,#243,#134,.T.);
#311=EDGE_CURVE('',#245,#248,#135,.T.);
#312=EDGE_CURVE('',#249,#250,#136,.T.);
#313=EDGE_CURVE('',#249,#251,#137,.T.);
#314=EDGE_CURVE('',#252,#251,#138,.T.);
#315=EDGE_CURVE('',#250,#252,#139,.T.);
#316=EDGE_CURVE('',#253,#250,#140,.T.);
#317=EDGE_CURVE('',#254,#252,#141,.T.);
#318=EDGE_CURVE('',#253,#254,#142,.T.);
#319=EDGE_CURVE('',#249,#253,#143,.T.);
#320=EDGE_CURVE('',#251,#254,#144,.T.);
#321=ORIENTED_EDGE('',*,*,#255,.F.);
#322=ORIENTED_EDGE('',*,*,#256,.T.);
#323=ORIENTED_EDGE('',*,*,#257,.F.);
#324=ORIENTED_EDGE('',*,*,#258,.F.);
#325=ORIENTED_EDGE('',*,*,#259,.T.);
#326=ORIENTED_EDGE('',*,*,#260,.T.);
#327=ORIENTED_EDGE('',*,*,#261,.F.);
#328=ORIENTED_EDGE('',*,*,#262,.F.);
#329=ORIENTED_EDGE('',*,*,#263,.T.);
#330=ORIENTED_EDGE('',*,*,#264,.F.);
#331=ORIENTED_EDGE('',*,*,#265,.F.);
#332=ORIENTED_EDGE('',*,*,#266,.T.);
#333=ORIENTED_EDGE('',*,*,#267,.T.);
#334=ORIENTED_EDGE('',*,*,#268,.T.);
#335=ORIENTED_EDGE('',*,*,#269,.T.);
#336=ORIENTED_EDGE('',*,*,#258,.T.);
#337=ORIENTED_EDGE('',*,*,#270,.F.);
#338=ORIENTED_EDGE('',*,*,#260,.F.);
#339=ORIENTED_EDGE('',*,*,#271,.F.);
#340=ORIENTED_EDGE('',*,*,#262,.T.);
#341=ORIENTED_EDGE('',*,*,#272,.F.);
#342=ORIENTED_EDGE('',*,*,#256,.F.);
#343=ORIENTED_EDGE('',*,*,#272,.T.);
#344=ORIENTED_EDGE('',*,*,#261,.T.);
#345=ORIENTED_EDGE('',*,*,#270,.T.);
#346=ORIENTED_EDGE('',*,*,#257,.T.);
#347=ORIENTED_EDGE('',*,*,#269,.F.);
#348=ORIENTED_EDGE('',*,*,#259,.F.);
#349=ORIENTED_EDGE('',*,*,#271,.T.);
#350=ORIENTED_EDGE('',*,*,#255,.T.);
#351=ORIENTED_EDGE('',*,*,#273,.T.);
#352=ORIENTED_EDGE('',*,*,#274,.T.);
#353=ORIENTED_EDGE('',*,*,#275,.T.);
#354=ORIENTED_EDGE('',*,*,#263,.F.);
#355=ORIENTED_EDGE('',*,*,#276,.F.);
#356=ORIENTED_EDGE('',*,*,#277,.T.);
#357=ORIENTED_EDGE('',*,*,#278,.T.);
#358=ORIENTED_EDGE('',*,*,#279,.T.);
#359=ORIENTED_EDGE('',*,*,#280,.F.);
#360=ORIENTED_EDGE('',*,*,#281,.T.);
#361=ORIENTED_EDGE('',*,*,#273,.F.);
#362=ORIENTED_EDGE('',*,*,#268,.F.);
#363=ORIENTED_EDGE('',*,*,#282,.F.);
#364=ORIENTED_EDGE('',*,*,#283,.T.);
#365=ORIENTED_EDGE('',*,*,#279,.F.);
#366=ORIENTED_EDGE('',*,*,#284,.F.);
#367=ORIENTED_EDGE('',*,*,#285,.F.);
#368=ORIENTED_EDGE('',*,*,#286,.T.);
#369=ORIENTED_EDGE('',*,*,#287,.T.);
#370=ORIENTED_EDGE('',*,*,#274,.F.);
#371=ORIENTED_EDGE('',*,*,#281,.F.);
#372=ORIENTED_EDGE('',*,*,#288,.F.);
#373=ORIENTED_EDGE('',*,*,#264,.T.);
#374=ORIENTED_EDGE('',*,*,#275,.F.);
#375=ORIENTED_EDGE('',*,*,#287,.F.);
#376=ORIENTED_EDGE('',*,*,#289,.T.);
#377=ORIENTED_EDGE('',*,*,#290,.F.);
#378=ORIENTED_EDGE('',*,*,#291,.T.);
#379=ORIENTED_EDGE('',*,*,#284,.T.);
#380=ORIENTED_EDGE('',*,*,#278,.F.);
#381=ORIENTED_EDGE('',*,*,#292,.F.);
#382=ORIENTED_EDGE('',*,*,#293,.F.);
#383=ORIENTED_EDGE('',*,*,#294,.T.);
#384=ORIENTED_EDGE('',*,*,#292,.T.);
#385=ORIENTED_EDGE('',*,*,#277,.F.);
#386=ORIENTED_EDGE('',*,*,#295,.F.);
#387=ORIENTED_EDGE('',*,*,#285,.T.);
#388=ORIENTED_EDGE('',*,*,#296,.F.);
#389=ORIENTED_EDGE('',*,*,#290,.T.);
#390=ORIENTED_EDGE('',*,*,#297,.T.);
#391=ORIENTED_EDGE('',*,*,#298,.T.);
#392=ORIENTED_EDGE('',*,*,#299,.T.);
#393=ORIENTED_EDGE('',*,*,#300,.F.);
#394=ORIENTED_EDGE('',*,*,#266,.F.);
#395=ORIENTED_EDGE('',*,*,#276,.T.);
#396=ORIENTED_EDGE('',*,*,#283,.F.);
#397=ORIENTED_EDGE('',*,*,#301,.F.);
#398=ORIENTED_EDGE('',*,*,#299,.F.);
#399=ORIENTED_EDGE('',*,*,#302,.T.);
#400=ORIENTED_EDGE('',*,*,#295,.T.);
#401=ORIENTED_EDGE('',*,*,#280,.T.);
#402=ORIENTED_EDGE('',*,*,#267,.F.);
#403=ORIENTED_EDGE('',*,*,#300,.T.);
#404=ORIENTED_EDGE('',*,*,#301,.T.);
#405=ORIENTED_EDGE('',*,*,#282,.T.);
#406=ORIENTED_EDGE('',*,*,#291,.F.);
#407=ORIENTED_EDGE('',*,*,#296,.T.);
#408=ORIENTED_EDGE('',*,*,#288,.T.);
#409=ORIENTED_EDGE('',*,*,#302,.F.);
#410=ORIENTED_EDGE('',*,*,#298,.F.);
#411=ORIENTED_EDGE('',*,*,#265,.T.);
#412=ORIENTED_EDGE('',*,*,#289,.F.);
#413=ORIENTED_EDGE('',*,*,#286,.F.);
#414=ORIENTED_EDGE('',*,*,#297,.F.);
#415=ORIENTED_EDGE('',*,*,#293,.T.);
#416=ORIENTED_EDGE('',*,*,#294,.F.);
#417=ORIENTED_EDGE('',*,*,#303,.F.);
#418=ORIENTED_EDGE('',*,*,#304,.T.);
#419=ORIENTED_EDGE('',*,*,#305,.F.);
#420=ORIENTED_EDGE('',*,*,#306,.F.);
#421=ORIENTED_EDGE('',*,*,#307,.F.);
#422=ORIENTED_EDGE('',*,*,#306,.T.);
#423=ORIENTED_EDGE('',*,*,#308,.F.);
#424=ORIENTED_EDGE('',*,*,#309,.F.);
#425=ORIENTED_EDGE('',*,*,#310,.F.);
#426=ORIENTED_EDGE('',*,*,#309,.T.);
#427=ORIENTED_EDGE('',*,*,#311,.F.);
#428=ORIENTED_EDGE('',*,*,#304,.F.);
#429=ORIENTED_EDGE('',*,*,#311,.T.);
#430=ORIENTED_EDGE('',*,*,#308,.T.);
#431=ORIENTED_EDGE('',*,*,#305,.T.);
#432=ORIENTED_EDGE('',*,*,#310,.T.);
#433=ORIENTED_EDGE('',*,*,#303,.T.);
#434=ORIENTED_EDGE('',*,*,#307,.T.);
#435=ORIENTED_EDGE('',*,*,#312,.F.);
#436=ORIENTED_EDGE('',*,*,#313,.T.);
#437=ORIENTED_EDGE('',*,*,#314,.F.);
#438=ORIENTED_EDGE('',*,*,#315,.F.);
#439=ORIENTED_EDGE('',*,*,#316,.T.);
#440=ORIENTED_EDGE('',*,*,#315,.T.);
#441=ORIENTED_EDGE('',*,*,#317,.F.);
#442=ORIENTED_EDGE('',*,*,#318,.F.);
#443=ORIENTED_EDGE('',*,*,#319,.T.);
#444=ORIENTED_EDGE('',*,*,#318,.T.);
#445=ORIENTED_EDGE('',*,*,#320,.F.);
#446=ORIENTED_EDGE('',*,*,#313,.F.);
#447=ORIENTED_EDGE('',*,*,#320,.T.);
#448=ORIENTED_EDGE('',*,*,#317,.T.);
#449=ORIENTED_EDGE('',*,*,#314,.T.);
#450=ORIENTED_EDGE('',*,*,#319,.F.);
#451=ORIENTED_EDGE('',*,*,#312,.T.);
#452=ORIENTED_EDGE('',*,*,#316,.F.);
#453=PLANE('',#525);
#454=PLANE('',#526);
#455=PLANE('',#527);
#456=PLANE('',#528);
#457=PLANE('',#529);
#458=PLANE('',#530);
#459=PLANE('',#531);
#460=PLANE('',#532);
#461=PLANE('',#533);
#462=PLANE('',#534);
#463=PLANE('',#535);
#464=PLANE('',#536);
#465=PLANE('',#537);
#466=PLANE('',#538);
#467=PLANE('',#539);
#468=PLANE('',#540);
#469=PLANE('',#541);
#470=PLANE('',#542);
#471=PLANE('',#543);
#472=PLANE('',#544);
#473=PLANE('',#545);
#474=PLANE('',#546);
#475=PLANE('',#547);
#476=PLANE('',#548);
#477=PLANE('',#549);
#478=PLANE('',#550);
#479=PLANE('',#551);
#480=PLANE('',#552);
#481=ADVANCED_FACE('',(#21),#453,.T.);
#482=ADVANCED_FACE('',(#22),#454,.T.);
#483=ADVANCED_FACE('',(#23),#455,.T.);
#484=ADVANCED_FACE('',(#24),#456,.T.);
#485=ADVANCED_FACE('',(#25),#457,.T.);
#486=ADVANCED_FACE('',(#26),#458,.T.);
#487=ADVANCED_FACE('',(#27,#19,#20),#459,.F.);
#488=ADVANCED_FACE('',(#28),#460,.T.);
#489=ADVANCED_FACE('',(#29),#461,.T.);
#490=ADVANCED_FACE('',(#30),#462,.T.);
#491=ADVANCED_FACE('',(#31),#463,.T.);
#492=ADVANCED_FACE('',(#32),#464,.T.);
#493=ADVANCED_FACE('',(#33),#465,.T.);
#494=ADVANCED_FACE('',(#34),#466,.T.);
#495=ADVANCED_FACE('',(#35),#467,.T.);
#496=ADVANCED_FACE('',(#36),#468,.T.);
#497=ADVANCED_FACE('',(#37),#469,.T.);
#498=ADVANCED_FACE('',(#38),#470,.F.);
#499=ADVANCED_FACE('',(#39),#471,.T.);
#500=ADVANCED_FACE('',(#40),#472,.T.);
#501=ADVANCED_FACE('',(#41),#473,.T.);
#502=ADVANCED_FACE('',(#42),#474,.T.);
#503=ADVANCED_FACE('',(#43),#475,.F.);
#504=ADVANCED_FACE('',(#44),#476,.T.);
#505=ADVANCED_FACE('',(#45),#477,.T.);
#506=ADVANCED_FACE('',(#46),#478,.T.);
#507=ADVANCED_FACE('',(#47),#479,.T.);
#508=ADVANCED_FACE('',(#48),#480,.F.);
#509=CLOSED_SHELL('',(#481,#482,#483,#484,#485,#486,#487,#488,#489,#490,
#491,#492,#493,#494,#495,#496,#497,#498));
#510=CLOSED_SHELL('',(#499,#500,#501,#502,#503));
#511=CLOSED_SHELL('',(#504,#505,#506,#507,#508));
#512=DERIVED_UNIT_ELEMENT(#514,1.);
#513=DERIVED_UNIT_ELEMENT(#821,-3.);
#514=(
MASS_UNIT()
NAMED_UNIT(*)
SI_UNIT(.KILO.,.GRAM.)
);
#515=DERIVED_UNIT((#512,#513));
#516=MEASURE_REPRESENTATION_ITEM('density measure',
POSITIVE_RATIO_MEASURE(7850.),#515);
#517=PROPERTY_DEFINITION_REPRESENTATION(#522,#519);
#518=PROPERTY_DEFINITION_REPRESENTATION(#523,#520);
#519=REPRESENTATION('material name',(#521),#818);
#520=REPRESENTATION('density',(#516),#818);
#521=DESCRIPTIVE_REPRESENTATION_ITEM('Steel','Steel');
#522=PROPERTY_DEFINITION('material property','material name',#828);
#523=PROPERTY_DEFINITION('material property','density of part',#828);
#524=AXIS2_PLACEMENT_3D('',#677,#553,#554);
#525=AXIS2_PLACEMENT_3D('',#678,#555,#556);
#526=AXIS2_PLACEMENT_3D('',#687,#561,#562);
#527=AXIS2_PLACEMENT_3D('',#696,#567,#568);
#528=AXIS2_PLACEMENT_3D('',#709,#575,#576);
#529=AXIS2_PLACEMENT_3D('',#712,#579,#580);
#530=AXIS2_PLACEMENT_3D('',#715,#583,#584);
#531=AXIS2_PLACEMENT_3D('',#716,#585,#586);
#532=AXIS2_PLACEMENT_3D('',#730,#594,#595);
#533=AXIS2_PLACEMENT_3D('',#734,#598,#599);
#534=AXIS2_PLACEMENT_3D('',#740,#603,#604);
#535=AXIS2_PLACEMENT_3D('',#748,#609,#610);
#536=AXIS2_PLACEMENT_3D('',#750,#612,#613);
#537=AXIS2_PLACEMENT_3D('',#758,#618,#619);
#538=AXIS2_PLACEMENT_3D('',#762,#622,#623);
#539=AXIS2_PLACEMENT_3D('',#765,#626,#627);
#540=AXIS2_PLACEMENT_3D('',#771,#631,#632);
#541=AXIS2_PLACEMENT_3D('',#774,#635,#636);
#542=AXIS2_PLACEMENT_3D('',#775,#637,#638);
#543=AXIS2_PLACEMENT_3D('',#776,#639,#640);
#544=AXIS2_PLACEMENT_3D('',#785,#645,#646);
#545=AXIS2_PLACEMENT_3D('',#791,#650,#651);
#546=AXIS2_PLACEMENT_3D('',#794,#654,#655);
#547=AXIS2_PLACEMENT_3D('',#795,#656,#657);
#548=AXIS2_PLACEMENT_3D('',#796,#658,#659);
#549=AXIS2_PLACEMENT_3D('',#805,#664,#665);
#550=AXIS2_PLACEMENT_3D('',#811,#669,#670);
#551=AXIS2_PLACEMENT_3D('',#814,#673,#674);
#552=AXIS2_PLACEMENT_3D('',#815,#675,#676);
#553=DIRECTION('axis',(0.,0.,1.));
#554=DIRECTION('refdir',(1.,0.,0.));
#555=DIRECTION('center_axis',(-1.,0.,0.));
#556=DIRECTION('ref_axis',(0.,-1.,0.));
#557=DIRECTION('',(0.,1.,0.));
#558=DIRECTION('',(0.,0.,1.));
#559=DIRECTION('',(0.,-1.,0.));
#560=DIRECTION('',(0.,0.,1.));
#561=DIRECTION('center_axis',(1.,0.,0.));
#562=DIRECTION('ref_axis',(0.,1.,0.));
#563=DIRECTION('',(0.,1.,0.));
#564=DIRECTION('',(0.,0.,1.));
#565=DIRECTION('',(0.,1.,0.));
#566=DIRECTION('',(0.,0.,1.));
#567=DIRECTION('center_axis',(1.,0.,0.));
#568=DIRECTION('ref_axis',(0.,1.,0.));
#569=DIRECTION('',(0.,-1.,0.));
#570=DIRECTION('',(0.,0.,1.));
#571=DIRECTION('',(0.,-1.,0.));
#572=DIRECTION('',(0.,0.,1.));
#573=DIRECTION('',(0.,-1.,0.));
#574=DIRECTION('',(0.,0.,1.));
#575=DIRECTION('center_axis',(0.,1.,0.));
#576=DIRECTION('ref_axis',(-1.,0.,0.));
#577=DIRECTION('',(-1.,0.,0.));
#578=DIRECTION('',(-1.,0.,0.));
#579=DIRECTION('center_axis',(0.,-1.,0.));
#580=DIRECTION('ref_axis',(1.,0.,0.));
#581=DIRECTION('',(-1.,0.,0.));
#582=DIRECTION('',(1.,0.,0.));
#583=DIRECTION('center_axis',(0.,0.,1.));
#584=DIRECTION('ref_axis',(1.,0.,0.));
#585=DIRECTION('center_axis',(0.,0.,1.));
#586=DIRECTION('ref_axis',(-1.,0.,0.));
#587=DIRECTION('',(-1.,0.,0.));
#588=DIRECTION('',(0.,-1.,0.));
#589=DIRECTION('',(1.,0.,0.));
#590=DIRECTION('',(0.,1.,0.));
#591=DIRECTION('',(1.,0.,0.));
#592=DIRECTION('',(0.,1.,0.));
#593=DIRECTION('',(-1.,0.,0.));
#594=DIRECTION('center_axis',(0.,1.,0.));
#595=DIRECTION('ref_axis',(-1.,0.,0.));
#596=DIRECTION('',(1.,0.,0.));
#597=DIRECTION('',(0.,0.,1.));
#598=DIRECTION('center_axis',(0.,1.,0.));
#599=DIRECTION('ref_axis',(-1.,0.,0.));
#600=DIRECTION('',(1.,0.,0.));
#601=DIRECTION('',(0.,0.,1.));
#602=DIRECTION('',(0.,0.,1.));
#603=DIRECTION('center_axis',(-1.,0.,0.));
#604=DIRECTION('ref_axis',(0.,0.,-1.));
#605=DIRECTION('',(0.,0.,1.));
#606=DIRECTION('',(0.,-1.,0.));
#607=DIRECTION('',(0.,0.,1.));
#608=DIRECTION('',(0.,-1.,0.));
#609=DIRECTION('center_axis',(0.,-1.,0.));
#610=DIRECTION('ref_axis',(0.,0.,-1.));
#611=DIRECTION('',(1.,0.,0.));
#612=DIRECTION('center_axis',(1.,0.,0.));
#613=DIRECTION('ref_axis',(0.,0.,1.));
#614=DIRECTION('',(0.,0.,-1.));
#615=DIRECTION('',(0.,-1.,0.));
#616=DIRECTION('',(0.,0.,1.));
#617=DIRECTION('',(0.,-1.,0.));
#618=DIRECTION('center_axis',(0.,-1.,0.));
#619=DIRECTION('ref_axis',(0.,0.,-1.));
#620=DIRECTION('',(1.,0.,0.));
#621=DIRECTION('',(0.,0.,1.));
#622=DIRECTION('center_axis',(0.,-1.,0.));
#623=DIRECTION('ref_axis',(1.,0.,0.));
#624=DIRECTION('',(1.,0.,0.));
#625=DIRECTION('',(1.,0.,0.));
#626=DIRECTION('center_axis',(0.,1.,0.));
#627=DIRECTION('ref_axis',(-1.,0.,0.));
#628=DIRECTION('',(-1.,0.,0.));
#629=DIRECTION('',(0.,0.,1.));
#630=DIRECTION('',(-1.,0.,0.));
#631=DIRECTION('center_axis',(-1.,0.,0.));
#632=DIRECTION('ref_axis',(0.,-1.,0.));
#633=DIRECTION('',(0.,-1.,0.));
#634=DIRECTION('',(0.,-1.,0.));
#635=DIRECTION('center_axis',(0.,0.,1.));
#636=DIRECTION('ref_axis',(1.,0.,0.));
#637=DIRECTION('center_axis',(0.,0.,1.));
#638=DIRECTION('ref_axis',(1.,0.,0.));
#639=DIRECTION('center_axis',(0.,0.351123441588392,0.936329177569045));
#640=DIRECTION('ref_axis',(0.,-0.936329177569045,0.351123441588392));
#641=DIRECTION('',(0.,0.936329177569045,-0.351123441588392));
#642=DIRECTION('',(1.,0.,0.));
#643=DIRECTION('',(0.,-0.936329177569045,0.351123441588392));
#644=DIRECTION('',(1.,0.,0.));
#645=DIRECTION('center_axis',(0.,0.,-1.));
#646=DIRECTION('ref_axis',(0.,1.,0.));
#647=DIRECTION('',(0.,-1.,0.));
#648=DIRECTION('',(0.,1.,0.));
#649=DIRECTION('',(1.,0.,0.));
#650=DIRECTION('center_axis',(0.,-1.,0.));
#651=DIRECTION('ref_axis',(0.,0.,-1.));
#652=DIRECTION('',(0.,0.,1.));
#653=DIRECTION('',(0.,0.,-1.));
#654=DIRECTION('center_axis',(1.,0.,0.));
#655=DIRECTION('ref_axis',(0.,0.,-1.));
#656=DIRECTION('center_axis',(1.,0.,0.));
#657=DIRECTION('ref_axis',(0.,1.,0.));
#658=DIRECTION('center_axis',(0.,0.,-1.));
#659=DIRECTION('ref_axis',(0.,-1.,0.));
#660=DIRECTION('',(0.,1.,0.));
#661=DIRECTION('',(-1.,0.,0.));
#662=DIRECTION('',(0.,-1.,0.));
#663=DIRECTION('',(-1.,0.,0.));
#664=DIRECTION('center_axis',(0.,0.351123441588392,0.936329177569045));
#665=DIRECTION('ref_axis',(0.,0.936329177569045,-0.351123441588392));
#666=DIRECTION('',(0.,0.936329177569045,-0.351123441588392));
#667=DIRECTION('',(0.,0.936329177569045,-0.351123441588392));
#668=DIRECTION('',(-1.,0.,0.));
#669=DIRECTION('center_axis',(0.,-1.,0.));
#670=DIRECTION('ref_axis',(0.,0.,1.));
#671=DIRECTION('',(0.,0.,1.));
#672=DIRECTION('',(0.,0.,1.));
#673=DIRECTION('center_axis',(-1.,0.,0.));
#674=DIRECTION('ref_axis',(0.,0.,1.));
#675=DIRECTION('center_axis',(-1.,0.,0.));
#676=DIRECTION('ref_axis',(0.,-1.,0.));
#677=CARTESIAN_POINT('',(0.,0.,0.));
#678=CARTESIAN_POINT('Origin',(-482.6,12.7,431.8));
#679=CARTESIAN_POINT('',(-482.6,-190.5,431.8));
#680=CARTESIAN_POINT('',(-482.6,12.7,431.8));
#681=CARTESIAN_POINT('',(-482.6,-190.5,431.8));
#682=CARTESIAN_POINT('',(-482.6,-190.5,433.32));
#683=CARTESIAN_POINT('',(-482.6,-190.5,431.8));
#684=CARTESIAN_POINT('',(-482.6,12.7,433.32));
#685=CARTESIAN_POINT('',(-482.6,-190.5,433.32));
#686=CARTESIAN_POINT('',(-482.6,12.7,431.8));
#687=CARTESIAN_POINT('Origin',(482.6,-190.5,431.8));
#688=CARTESIAN_POINT('',(482.6,-190.5,431.8));
#689=CARTESIAN_POINT('',(482.6,12.7,431.8));
#690=CARTESIAN_POINT('',(482.6,-190.5,431.8));
#691=CARTESIAN_POINT('',(482.6,12.7,433.32));
#692=CARTESIAN_POINT('',(482.6,12.7,431.8));
#693=CARTESIAN_POINT('',(482.6,-190.5,433.32));
#694=CARTESIAN_POINT('',(482.6,-190.5,433.32));
#695=CARTESIAN_POINT('',(482.6,-190.5,431.8));
#696=CARTESIAN_POINT('Origin',(381.,0.,0.));
#697=CARTESIAN_POINT('',(381.,-76.2,431.8));
#698=CARTESIAN_POINT('',(381.,-101.6,431.8));
#699=CARTESIAN_POINT('',(381.,-44.45,431.8));
#700=CARTESIAN_POINT('',(381.,-101.6,0.));
#701=CARTESIAN_POINT('',(381.,-101.6,0.));
#702=CARTESIAN_POINT('',(381.,25.4,0.));
#703=CARTESIAN_POINT('',(381.,0.,0.));
#704=CARTESIAN_POINT('',(381.,25.4,25.4));
#705=CARTESIAN_POINT('',(381.,25.4,0.));
#706=CARTESIAN_POINT('',(381.,-76.2,25.4));
#707=CARTESIAN_POINT('',(381.,0.,25.4));
#708=CARTESIAN_POINT('',(381.,-76.2,25.4));
#709=CARTESIAN_POINT('Origin',(381.,12.7,431.8));
#710=CARTESIAN_POINT('',(482.6,12.7,431.8));
#711=CARTESIAN_POINT('',(482.6,12.7,433.32));
#712=CARTESIAN_POINT('Origin',(-381.,-190.5,431.8));
#713=CARTESIAN_POINT('',(-381.,-190.5,431.8));
#714=CARTESIAN_POINT('',(-381.,-190.5,433.32));
#715=CARTESIAN_POINT('Origin',(0.,-88.9,433.32));
#716=CARTESIAN_POINT('Origin',(0.,-88.9,431.8));
#717=CARTESIAN_POINT('',(355.6,-76.2,431.8));
#718=CARTESIAN_POINT('',(381.,-76.2,431.8));
#719=CARTESIAN_POINT('',(355.6,-101.6,431.8));
#720=CARTESIAN_POINT('',(355.6,-76.2,431.8));
#721=CARTESIAN_POINT('',(355.6,-101.6,431.8));
#722=CARTESIAN_POINT('',(-381.,-101.6,431.8));
#723=CARTESIAN_POINT('',(-381.,-76.2,431.8));
#724=CARTESIAN_POINT('',(-381.,-31.75,431.8));
#725=CARTESIAN_POINT('',(-355.6,-101.6,431.8));
#726=CARTESIAN_POINT('',(-381.,-101.6,431.8));
#727=CARTESIAN_POINT('',(-355.6,-76.2,431.8));
#728=CARTESIAN_POINT('',(-355.6,-101.6,431.8));
#729=CARTESIAN_POINT('',(-355.6,-76.2,431.8));
#730=CARTESIAN_POINT('Origin',(381.,-76.2,25.4));
#731=CARTESIAN_POINT('',(355.6,-76.2,25.4));
#732=CARTESIAN_POINT('',(190.5,-76.2,25.4));
#733=CARTESIAN_POINT('',(355.6,-76.2,25.4));
#734=CARTESIAN_POINT('Origin',(-355.6,-76.2,25.4));
#735=CARTESIAN_POINT('',(-381.,-76.2,25.4));
#736=CARTESIAN_POINT('',(-355.6,-76.2,25.4));
#737=CARTESIAN_POINT('',(-177.8,-76.2,25.4));
#738=CARTESIAN_POINT('',(-381.,-76.2,25.4));
#739=CARTESIAN_POINT('',(-355.6,-76.2,25.4));
#740=CARTESIAN_POINT('Origin',(355.6,0.,25.4));
#741=CARTESIAN_POINT('',(355.6,0.,0.));
#742=CARTESIAN_POINT('',(355.6,0.,25.4));
#743=CARTESIAN_POINT('',(355.6,0.,12.7));
#744=CARTESIAN_POINT('',(355.6,-101.6,0.));
#745=CARTESIAN_POINT('',(355.6,0.,0.));
#746=CARTESIAN_POINT('',(355.6,-101.6,25.4));
#747=CARTESIAN_POINT('',(355.6,0.,25.4));
#748=CARTESIAN_POINT('Origin',(368.3,-101.6,12.7));
#749=CARTESIAN_POINT('',(355.6,-101.6,0.));
#750=CARTESIAN_POINT('Origin',(-355.6,0.,0.));
#751=CARTESIAN_POINT('',(-355.6,0.,25.4));
#752=CARTESIAN_POINT('',(-355.6,0.,0.));
#753=CARTESIAN_POINT('',(-355.6,0.,0.));
#754=CARTESIAN_POINT('',(-355.6,0.,25.4));
#755=CARTESIAN_POINT('',(-355.6,-101.6,0.));
#756=CARTESIAN_POINT('',(-355.6,-101.6,25.4));
#757=CARTESIAN_POINT('',(-355.6,0.,0.));
#758=CARTESIAN_POINT('Origin',(-368.3,-101.6,12.7));
#759=CARTESIAN_POINT('',(-381.,-101.6,0.));
#760=CARTESIAN_POINT('',(-355.6,-101.6,0.));
#761=CARTESIAN_POINT('',(-381.,-101.6,25.4));
#762=CARTESIAN_POINT('Origin',(-381.,0.,0.));
#763=CARTESIAN_POINT('',(-381.,0.,25.4));
#764=CARTESIAN_POINT('',(-381.,0.,0.));
#765=CARTESIAN_POINT('Origin',(381.,25.4,0.));
#766=CARTESIAN_POINT('',(-381.,25.4,0.));
#767=CARTESIAN_POINT('',(381.,25.4,0.));
#768=CARTESIAN_POINT('',(-381.,25.4,25.4));
#769=CARTESIAN_POINT('',(-381.,25.4,0.));
#770=CARTESIAN_POINT('',(381.,25.4,25.4));
#771=CARTESIAN_POINT('Origin',(-381.,25.4,0.));
#772=CARTESIAN_POINT('',(-381.,25.4,25.4));
#773=CARTESIAN_POINT('',(-381.,25.4,0.));
#774=CARTESIAN_POINT('Origin',(0.,12.7,25.4));
#775=CARTESIAN_POINT('Origin',(0.,12.7,0.));
#776=CARTESIAN_POINT('Origin',(482.6,8.64666666666658,433.32));
#777=CARTESIAN_POINT('',(482.6,-190.5,508.));
#778=CARTESIAN_POINT('',(482.6,8.64666666666658,433.32));
#779=CARTESIAN_POINT('',(482.6,-190.5,508.));
#780=CARTESIAN_POINT('',(484.12,-190.5,508.));
#781=CARTESIAN_POINT('',(482.6,-190.5,508.));
#782=CARTESIAN_POINT('',(484.12,8.64666666666658,433.32));
#783=CARTESIAN_POINT('',(484.12,-190.5,508.));
#784=CARTESIAN_POINT('',(482.6,8.64666666666658,433.32));
#785=CARTESIAN_POINT('Origin',(482.6,-190.5,433.32));
#786=CARTESIAN_POINT('',(482.6,-190.5,433.32));
#787=CARTESIAN_POINT('',(482.6,12.7,433.32));
#788=CARTESIAN_POINT('',(484.12,-190.5,433.32));
#789=CARTESIAN_POINT('',(484.12,12.7,433.32));
#790=CARTESIAN_POINT('',(482.6,-190.5,433.32));
#791=CARTESIAN_POINT('Origin',(482.6,-190.5,508.));
#792=CARTESIAN_POINT('',(482.6,-190.5,431.8));
#793=CARTESIAN_POINT('',(484.12,-190.5,431.8));
#794=CARTESIAN_POINT('Origin',(484.12,-90.9266666666667,470.66));
#795=CARTESIAN_POINT('Origin',(482.6,-90.9266666666667,470.66));
#796=CARTESIAN_POINT('Origin',(-482.6,8.64666666666661,433.32));
#797=CARTESIAN_POINT('',(-482.6,-190.5,433.32));
#798=CARTESIAN_POINT('',(-482.6,8.64666666666661,433.32));
#799=CARTESIAN_POINT('',(-482.6,-190.5,433.32));
#800=CARTESIAN_POINT('',(-484.12,-190.5,433.32));
#801=CARTESIAN_POINT('',(-482.6,-190.5,433.32));
#802=CARTESIAN_POINT('',(-484.12,8.64666666666661,433.32));
#803=CARTESIAN_POINT('',(-484.12,-190.5,433.32));
#804=CARTESIAN_POINT('',(-482.6,8.64666666666661,433.32));
#805=CARTESIAN_POINT('Origin',(-482.6,-190.5,508.));
#806=CARTESIAN_POINT('',(-482.6,-190.5,508.));
#807=CARTESIAN_POINT('',(-482.6,-190.5,508.));
#808=CARTESIAN_POINT('',(-484.12,-190.5,508.));
#809=CARTESIAN_POINT('',(-484.12,-190.5,508.));
#810=CARTESIAN_POINT('',(-482.6,-190.5,508.));
#811=CARTESIAN_POINT('Origin',(-482.6,-190.5,433.32));
#812=CARTESIAN_POINT('',(-482.6,-190.5,431.8));
#813=CARTESIAN_POINT('',(-484.12,-190.5,431.8));
#814=CARTESIAN_POINT('Origin',(-484.12,-90.9266666666667,470.66));
#815=CARTESIAN_POINT('Origin',(-482.6,-90.9266666666667,470.66));
#816=UNCERTAINTY_MEASURE_WITH_UNIT(LENGTH_MEASURE(0.01),#820,
'DISTANCE_ACCURACY_VALUE',
'Maximum model space distance between geometric entities at asserted c
onnectivities');
#817=UNCERTAINTY_MEASURE_WITH_UNIT(LENGTH_MEASURE(0.01),#820,
'DISTANCE_ACCURACY_VALUE',
'Maximum model space distance between geometric entities at asserted c
onnectivities');
#818=(
GEOMETRIC_REPRESENTATION_CONTEXT(3)
GLOBAL_UNCERTAINTY_ASSIGNED_CONTEXT((#816))
GLOBAL_UNIT_ASSIGNED_CONTEXT((#820,#822,#823))
REPRESENTATION_CONTEXT('','3D')
);
#819=(
GEOMETRIC_REPRESENTATION_CONTEXT(3)
GLOBAL_UNCERTAINTY_ASSIGNED_CONTEXT((#817))
GLOBAL_UNIT_ASSIGNED_CONTEXT((#820,#822,#823))
REPRESENTATION_CONTEXT('','3D')
);
#820=(
LENGTH_UNIT()
NAMED_UNIT(*)
SI_UNIT(.MILLI.,.METRE.)
);
#821=(
LENGTH_UNIT()
NAMED_UNIT(*)
SI_UNIT($,.METRE.)
);
#822=(
NAMED_UNIT(*)
PLANE_ANGLE_UNIT()
SI_UNIT($,.RADIAN.)
);
#823=(
NAMED_UNIT(*)
SI_UNIT($,.STERADIAN.)
SOLID_ANGLE_UNIT()
);
#824=SHAPE_DEFINITION_REPRESENTATION(#825,#826);
#825=PRODUCT_DEFINITION_SHAPE('',$,#828);
#826=SHAPE_REPRESENTATION('',(#524),#818);
#827=PRODUCT_DEFINITION_CONTEXT('part definition',#832,'design');
#828=PRODUCT_DEFINITION('Go Kart Spoiler','Go Kart Spoiler v5',#829,#827);
#829=PRODUCT_DEFINITION_FORMATION('',$,#834);
#830=PRODUCT_RELATED_PRODUCT_CATEGORY('Go Kart Spoiler v5',
'Go Kart Spoiler v5',(#834));
#831=APPLICATION_PROTOCOL_DEFINITION('international standard',
'automotive_design',2009,#832);
#832=APPLICATION_CONTEXT(
'Core Data for Automotive Mechanical Design Process');
#833=PRODUCT_CONTEXT('part definition',#832,'mechanical');
#834=PRODUCT('Go Kart Spoiler','Go Kart Spoiler v5',$,(#833));
#835=PRESENTATION_STYLE_ASSIGNMENT((#836));
#836=SURFACE_STYLE_USAGE(.BOTH.,#837);
#837=SURFACE_SIDE_STYLE('',(#838));
#838=SURFACE_STYLE_FILL_AREA(#839);
#839=FILL_AREA_STYLE('Steel - Satin',(#840));
#840=FILL_AREA_STYLE_COLOUR('Steel - Satin',#841);
#841=COLOUR_RGB('Steel - Satin',0.627450980392157,0.627450980392157,0.627450980392157);
ENDSEC;
END-ISO-10303-21;
