ISO-10303-21;
HEADER;
/* Generated by software containing ST-Developer
 * from STEP Tools, Inc. (www.steptools.com) 
 */

FILE_DESCRIPTION(
/* description */ (''),
/* implementation_level */ '2;1');

FILE_NAME(
/* name */ '14 Gauge Steel Tubing Cap.step',
/* time_stamp */ '2026-07-13T23:02:44-06:00',
/* author */ (''),
/* organization */ (''),
/* preprocessor_version */ 'ST-DEVELOPER v20.1',
/* originating_system */ 'Autodesk Translation Framework v15.8.0.0',
/* authorisation */ '');

FILE_SCHEMA (('AUTOMOTIVE_DESIGN { 1 0 10303 214 3 1 1 }'));
ENDSEC;

DATA;
#10=MECHANICAL_DESIGN_GEOMETRIC_PRESENTATION_REPRESENTATION('',(#13,#14),
#566);
#11=SHAPE_REPRESENTATION_RELATIONSHIP('SRR','None',#573,#12);
#12=ADVANCED_BREP_SHAPE_REPRESENTATION('',(#15,#16),#565);
#13=STYLED_ITEM('',(#582),#15);
#14=STYLED_ITEM('',(#582),#16);
#15=MANIFOLD_SOLID_BREP('Body1',#349);
#16=MANIFOLD_SOLID_BREP('Body2',#350);
#17=FACE_BOUND('',#48,.T.);
#18=FACE_BOUND('',#50,.T.);
#19=FACE_OUTER_BOUND('',#39,.T.);
#20=FACE_OUTER_BOUND('',#40,.T.);
#21=FACE_OUTER_BOUND('',#41,.T.);
#22=FACE_OUTER_BOUND('',#42,.T.);
#23=FACE_OUTER_BOUND('',#43,.T.);
#24=FACE_OUTER_BOUND('',#44,.T.);
#25=FACE_OUTER_BOUND('',#45,.T.);
#26=FACE_OUTER_BOUND('',#46,.T.);
#27=FACE_OUTER_BOUND('',#47,.T.);
#28=FACE_OUTER_BOUND('',#49,.T.);
#29=FACE_OUTER_BOUND('',#51,.T.);
#30=FACE_OUTER_BOUND('',#52,.T.);
#31=FACE_OUTER_BOUND('',#53,.T.);
#32=FACE_OUTER_BOUND('',#54,.T.);
#33=FACE_OUTER_BOUND('',#55,.T.);
#34=FACE_OUTER_BOUND('',#56,.T.);
#35=FACE_OUTER_BOUND('',#57,.T.);
#36=FACE_OUTER_BOUND('',#58,.T.);
#37=FACE_OUTER_BOUND('',#59,.T.);
#38=FACE_OUTER_BOUND('',#60,.T.);
#39=EDGE_LOOP('',(#221,#222,#223,#224));
#40=EDGE_LOOP('',(#225,#226,#227,#228));
#41=EDGE_LOOP('',(#229,#230,#231,#232));
#42=EDGE_LOOP('',(#233,#234,#235,#236));
#43=EDGE_LOOP('',(#237,#238,#239,#240));
#44=EDGE_LOOP('',(#241,#242,#243,#244));
#45=EDGE_LOOP('',(#245,#246,#247,#248));
#46=EDGE_LOOP('',(#249,#250,#251,#252));
#47=EDGE_LOOP('',(#253,#254,#255,#256));
#48=EDGE_LOOP('',(#257,#258,#259,#260));
#49=EDGE_LOOP('',(#261,#262,#263,#264));
#50=EDGE_LOOP('',(#265,#266,#267,#268));
#51=EDGE_LOOP('',(#269,#270,#271,#272));
#52=EDGE_LOOP('',(#273,#274,#275,#276));
#53=EDGE_LOOP('',(#277,#278,#279,#280));
#54=EDGE_LOOP('',(#281,#282,#283,#284));
#55=EDGE_LOOP('',(#285,#286,#287,#288));
#56=EDGE_LOOP('',(#289,#290,#291,#292));
#57=EDGE_LOOP('',(#293,#294,#295,#296));
#58=EDGE_LOOP('',(#297,#298,#299,#300));
#59=EDGE_LOOP('',(#301,#302,#303,#304));
#60=EDGE_LOOP('',(#305,#306,#307,#308));
#61=LINE('',#474,#105);
#62=LINE('',#476,#106);
#63=LINE('',#478,#107);
#64=LINE('',#479,#108);
#65=LINE('',#482,#109);
#66=LINE('',#484,#110);
#67=LINE('',#485,#111);
#68=LINE('',#488,#112);
#69=LINE('',#490,#113);
#70=LINE('',#491,#114);
#71=LINE('',#493,#115);
#72=LINE('',#494,#116);
#73=LINE('',#498,#117);
#74=LINE('',#500,#118);
#75=LINE('',#502,#119);
#76=LINE('',#503,#120);
#77=LINE('',#506,#121);
#78=LINE('',#508,#122);
#79=LINE('',#509,#123);
#80=LINE('',#512,#124);
#81=LINE('',#514,#125);
#82=LINE('',#515,#126);
#83=LINE('',#517,#127);
#84=LINE('',#518,#128);
#85=LINE('',#524,#129);
#86=LINE('',#526,#130);
#87=LINE('',#528,#131);
#88=LINE('',#529,#132);
#89=LINE('',#532,#133);
#90=LINE('',#534,#134);
#91=LINE('',#535,#135);
#92=LINE('',#538,#136);
#93=LINE('',#540,#137);
#94=LINE('',#541,#138);
#95=LINE('',#543,#139);
#96=LINE('',#544,#140);
#97=LINE('',#547,#141);
#98=LINE('',#549,#142);
#99=LINE('',#550,#143);
#100=LINE('',#553,#144);
#101=LINE('',#554,#145);
#102=LINE('',#558,#146);
#103=LINE('',#559,#147);
#104=LINE('',#561,#148);
#105=VECTOR('',#388,10.);
#106=VECTOR('',#389,10.);
#107=VECTOR('',#390,10.);
#108=VECTOR('',#391,10.);
#109=VECTOR('',#394,10.);
#110=VECTOR('',#395,10.);
#111=VECTOR('',#396,10.);
#112=VECTOR('',#399,10.);
#113=VECTOR('',#400,10.);
#114=VECTOR('',#401,10.);
#115=VECTOR('',#404,10.);
#116=VECTOR('',#405,10.);
#117=VECTOR('',#408,10.);
#118=VECTOR('',#409,10.);
#119=VECTOR('',#410,10.);
#120=VECTOR('',#411,10.);
#121=VECTOR('',#414,10.);
#122=VECTOR('',#415,10.);
#123=VECTOR('',#416,10.);
#124=VECTOR('',#419,10.);
#125=VECTOR('',#420,10.);
#126=VECTOR('',#421,10.);
#127=VECTOR('',#424,10.);
#128=VECTOR('',#425,10.);
#129=VECTOR('',#432,10.);
#130=VECTOR('',#433,10.);
#131=VECTOR('',#434,10.);
#132=VECTOR('',#435,10.);
#133=VECTOR('',#438,10.);
#134=VECTOR('',#439,10.);
#135=VECTOR('',#440,10.);
#136=VECTOR('',#443,10.);
#137=VECTOR('',#444,10.);
#138=VECTOR('',#445,10.);
#139=VECTOR('',#448,10.);
#140=VECTOR('',#449,10.);
#141=VECTOR('',#452,10.);
#142=VECTOR('',#453,10.);
#143=VECTOR('',#454,10.);
#144=VECTOR('',#457,10.);
#145=VECTOR('',#458,10.);
#146=VECTOR('',#463,10.);
#147=VECTOR('',#464,10.);
#148=VECTOR('',#467,10.);
#149=VERTEX_POINT('',#472);
#150=VERTEX_POINT('',#473);
#151=VERTEX_POINT('',#475);
#152=VERTEX_POINT('',#477);
#153=VERTEX_POINT('',#481);
#154=VERTEX_POINT('',#483);
#155=VERTEX_POINT('',#487);
#156=VERTEX_POINT('',#489);
#157=VERTEX_POINT('',#496);
#158=VERTEX_POINT('',#497);
#159=VERTEX_POINT('',#499);
#160=VERTEX_POINT('',#501);
#161=VERTEX_POINT('',#505);
#162=VERTEX_POINT('',#507);
#163=VERTEX_POINT('',#511);
#164=VERTEX_POINT('',#513);
#165=VERTEX_POINT('',#522);
#166=VERTEX_POINT('',#523);
#167=VERTEX_POINT('',#525);
#168=VERTEX_POINT('',#527);
#169=VERTEX_POINT('',#531);
#170=VERTEX_POINT('',#533);
#171=VERTEX_POINT('',#537);
#172=VERTEX_POINT('',#539);
#173=VERTEX_POINT('',#546);
#174=VERTEX_POINT('',#548);
#175=VERTEX_POINT('',#552);
#176=VERTEX_POINT('',#557);
#177=EDGE_CURVE('',#149,#150,#61,.T.);
#178=EDGE_CURVE('',#150,#151,#62,.T.);
#179=EDGE_CURVE('',#152,#151,#63,.T.);
#180=EDGE_CURVE('',#149,#152,#64,.T.);
#181=EDGE_CURVE('',#153,#149,#65,.T.);
#182=EDGE_CURVE('',#154,#152,#66,.T.);
#183=EDGE_CURVE('',#153,#154,#67,.T.);
#184=EDGE_CURVE('',#155,#153,#68,.T.);
#185=EDGE_CURVE('',#156,#154,#69,.T.);
#186=EDGE_CURVE('',#155,#156,#70,.T.);
#187=EDGE_CURVE('',#150,#155,#71,.T.);
#188=EDGE_CURVE('',#151,#156,#72,.T.);
#189=EDGE_CURVE('',#157,#158,#73,.T.);
#190=EDGE_CURVE('',#157,#159,#74,.T.);
#191=EDGE_CURVE('',#160,#159,#75,.T.);
#192=EDGE_CURVE('',#158,#160,#76,.T.);
#193=EDGE_CURVE('',#158,#161,#77,.T.);
#194=EDGE_CURVE('',#162,#160,#78,.T.);
#195=EDGE_CURVE('',#161,#162,#79,.T.);
#196=EDGE_CURVE('',#161,#163,#80,.T.);
#197=EDGE_CURVE('',#164,#162,#81,.T.);
#198=EDGE_CURVE('',#163,#164,#82,.T.);
#199=EDGE_CURVE('',#163,#157,#83,.T.);
#200=EDGE_CURVE('',#159,#164,#84,.T.);
#201=EDGE_CURVE('',#165,#166,#85,.T.);
#202=EDGE_CURVE('',#166,#167,#86,.T.);
#203=EDGE_CURVE('',#167,#168,#87,.T.);
#204=EDGE_CURVE('',#165,#168,#88,.T.);
#205=EDGE_CURVE('',#166,#169,#89,.T.);
#206=EDGE_CURVE('',#169,#170,#90,.T.);
#207=EDGE_CURVE('',#170,#167,#91,.T.);
#208=EDGE_CURVE('',#169,#171,#92,.T.);
#209=EDGE_CURVE('',#171,#172,#93,.T.);
#210=EDGE_CURVE('',#172,#170,#94,.T.);
#211=EDGE_CURVE('',#168,#172,#95,.T.);
#212=EDGE_CURVE('',#171,#165,#96,.T.);
#213=EDGE_CURVE('',#173,#168,#97,.T.);
#214=EDGE_CURVE('',#173,#174,#98,.T.);
#215=EDGE_CURVE('',#174,#172,#99,.T.);
#216=EDGE_CURVE('',#175,#167,#100,.T.);
#217=EDGE_CURVE('',#175,#173,#101,.T.);
#218=EDGE_CURVE('',#174,#176,#102,.T.);
#219=EDGE_CURVE('',#176,#170,#103,.T.);
#220=EDGE_CURVE('',#176,#175,#104,.T.);
#221=ORIENTED_EDGE('',*,*,#177,.T.);
#222=ORIENTED_EDGE('',*,*,#178,.T.);
#223=ORIENTED_EDGE('',*,*,#179,.F.);
#224=ORIENTED_EDGE('',*,*,#180,.F.);
#225=ORIENTED_EDGE('',*,*,#181,.T.);
#226=ORIENTED_EDGE('',*,*,#180,.T.);
#227=ORIENTED_EDGE('',*,*,#182,.F.);
#228=ORIENTED_EDGE('',*,*,#183,.F.);
#229=ORIENTED_EDGE('',*,*,#184,.T.);
#230=ORIENTED_EDGE('',*,*,#183,.T.);
#231=ORIENTED_EDGE('',*,*,#185,.F.);
#232=ORIENTED_EDGE('',*,*,#186,.F.);
#233=ORIENTED_EDGE('',*,*,#187,.T.);
#234=ORIENTED_EDGE('',*,*,#186,.T.);
#235=ORIENTED_EDGE('',*,*,#188,.F.);
#236=ORIENTED_EDGE('',*,*,#178,.F.);
#237=ORIENTED_EDGE('',*,*,#189,.F.);
#238=ORIENTED_EDGE('',*,*,#190,.T.);
#239=ORIENTED_EDGE('',*,*,#191,.F.);
#240=ORIENTED_EDGE('',*,*,#192,.F.);
#241=ORIENTED_EDGE('',*,*,#193,.F.);
#242=ORIENTED_EDGE('',*,*,#192,.T.);
#243=ORIENTED_EDGE('',*,*,#194,.F.);
#244=ORIENTED_EDGE('',*,*,#195,.F.);
#245=ORIENTED_EDGE('',*,*,#196,.F.);
#246=ORIENTED_EDGE('',*,*,#195,.T.);
#247=ORIENTED_EDGE('',*,*,#197,.F.);
#248=ORIENTED_EDGE('',*,*,#198,.F.);
#249=ORIENTED_EDGE('',*,*,#199,.F.);
#250=ORIENTED_EDGE('',*,*,#198,.T.);
#251=ORIENTED_EDGE('',*,*,#200,.F.);
#252=ORIENTED_EDGE('',*,*,#190,.F.);
#253=ORIENTED_EDGE('',*,*,#200,.T.);
#254=ORIENTED_EDGE('',*,*,#197,.T.);
#255=ORIENTED_EDGE('',*,*,#194,.T.);
#256=ORIENTED_EDGE('',*,*,#191,.T.);
#257=ORIENTED_EDGE('',*,*,#188,.T.);
#258=ORIENTED_EDGE('',*,*,#185,.T.);
#259=ORIENTED_EDGE('',*,*,#182,.T.);
#260=ORIENTED_EDGE('',*,*,#179,.T.);
#261=ORIENTED_EDGE('',*,*,#199,.T.);
#262=ORIENTED_EDGE('',*,*,#189,.T.);
#263=ORIENTED_EDGE('',*,*,#193,.T.);
#264=ORIENTED_EDGE('',*,*,#196,.T.);
#265=ORIENTED_EDGE('',*,*,#187,.F.);
#266=ORIENTED_EDGE('',*,*,#177,.F.);
#267=ORIENTED_EDGE('',*,*,#181,.F.);
#268=ORIENTED_EDGE('',*,*,#184,.F.);
#269=ORIENTED_EDGE('',*,*,#201,.T.);
#270=ORIENTED_EDGE('',*,*,#202,.T.);
#271=ORIENTED_EDGE('',*,*,#203,.T.);
#272=ORIENTED_EDGE('',*,*,#204,.F.);
#273=ORIENTED_EDGE('',*,*,#205,.T.);
#274=ORIENTED_EDGE('',*,*,#206,.T.);
#275=ORIENTED_EDGE('',*,*,#207,.T.);
#276=ORIENTED_EDGE('',*,*,#202,.F.);
#277=ORIENTED_EDGE('',*,*,#208,.T.);
#278=ORIENTED_EDGE('',*,*,#209,.T.);
#279=ORIENTED_EDGE('',*,*,#210,.T.);
#280=ORIENTED_EDGE('',*,*,#206,.F.);
#281=ORIENTED_EDGE('',*,*,#211,.T.);
#282=ORIENTED_EDGE('',*,*,#209,.F.);
#283=ORIENTED_EDGE('',*,*,#212,.T.);
#284=ORIENTED_EDGE('',*,*,#204,.T.);
#285=ORIENTED_EDGE('',*,*,#211,.F.);
#286=ORIENTED_EDGE('',*,*,#213,.F.);
#287=ORIENTED_EDGE('',*,*,#214,.T.);
#288=ORIENTED_EDGE('',*,*,#215,.T.);
#289=ORIENTED_EDGE('',*,*,#203,.F.);
#290=ORIENTED_EDGE('',*,*,#216,.F.);
#291=ORIENTED_EDGE('',*,*,#217,.T.);
#292=ORIENTED_EDGE('',*,*,#213,.T.);
#293=ORIENTED_EDGE('',*,*,#201,.F.);
#294=ORIENTED_EDGE('',*,*,#212,.F.);
#295=ORIENTED_EDGE('',*,*,#208,.F.);
#296=ORIENTED_EDGE('',*,*,#205,.F.);
#297=ORIENTED_EDGE('',*,*,#210,.F.);
#298=ORIENTED_EDGE('',*,*,#215,.F.);
#299=ORIENTED_EDGE('',*,*,#218,.T.);
#300=ORIENTED_EDGE('',*,*,#219,.T.);
#301=ORIENTED_EDGE('',*,*,#207,.F.);
#302=ORIENTED_EDGE('',*,*,#219,.F.);
#303=ORIENTED_EDGE('',*,*,#220,.T.);
#304=ORIENTED_EDGE('',*,*,#216,.T.);
#305=ORIENTED_EDGE('',*,*,#220,.F.);
#306=ORIENTED_EDGE('',*,*,#218,.F.);
#307=ORIENTED_EDGE('',*,*,#214,.F.);
#308=ORIENTED_EDGE('',*,*,#217,.F.);
#309=PLANE('',#364);
#310=PLANE('',#365);
#311=PLANE('',#366);
#312=PLANE('',#367);
#313=PLANE('',#368);
#314=PLANE('',#369);
#315=PLANE('',#370);
#316=PLANE('',#371);
#317=PLANE('',#372);
#318=PLANE('',#373);
#319=PLANE('',#374);
#320=PLANE('',#375);
#321=PLANE('',#376);
#322=PLANE('',#377);
#323=PLANE('',#378);
#324=PLANE('',#379);
#325=PLANE('',#380);
#326=PLANE('',#381);
#327=PLANE('',#382);
#328=PLANE('',#383);
#329=ADVANCED_FACE('',(#19),#309,.T.);
#330=ADVANCED_FACE('',(#20),#310,.T.);
#331=ADVANCED_FACE('',(#21),#311,.T.);
#332=ADVANCED_FACE('',(#22),#312,.T.);
#333=ADVANCED_FACE('',(#23),#313,.T.);
#334=ADVANCED_FACE('',(#24),#314,.T.);
#335=ADVANCED_FACE('',(#25),#315,.T.);
#336=ADVANCED_FACE('',(#26),#316,.T.);
#337=ADVANCED_FACE('',(#27,#17),#317,.T.);
#338=ADVANCED_FACE('',(#28,#18),#318,.F.);
#339=ADVANCED_FACE('',(#29),#319,.T.);
#340=ADVANCED_FACE('',(#30),#320,.T.);
#341=ADVANCED_FACE('',(#31),#321,.T.);
#342=ADVANCED_FACE('',(#32),#322,.T.);
#343=ADVANCED_FACE('',(#33),#323,.T.);
#344=ADVANCED_FACE('',(#34),#324,.T.);
#345=ADVANCED_FACE('',(#35),#325,.T.);
#346=ADVANCED_FACE('',(#36),#326,.T.);
#347=ADVANCED_FACE('',(#37),#327,.T.);
#348=ADVANCED_FACE('',(#38),#328,.T.);
#349=CLOSED_SHELL('',(#329,#330,#331,#332,#333,#334,#335,#336,#337,#338));
#350=CLOSED_SHELL('',(#339,#340,#341,#342,#343,#344,#345,#346,#347,#348));
#351=DERIVED_UNIT_ELEMENT(#353,1.);
#352=DERIVED_UNIT_ELEMENT(#568,-3.);
#353=(
MASS_UNIT()
NAMED_UNIT(*)
SI_UNIT(.KILO.,.GRAM.)
);
#354=DERIVED_UNIT((#351,#352));
#355=MEASURE_REPRESENTATION_ITEM('density measure',
POSITIVE_RATIO_MEASURE(7850.),#354);
#356=PROPERTY_DEFINITION_REPRESENTATION(#361,#358);
#357=PROPERTY_DEFINITION_REPRESENTATION(#362,#359);
#358=REPRESENTATION('material name',(#360),#565);
#359=REPRESENTATION('density',(#355),#565);
#360=DESCRIPTIVE_REPRESENTATION_ITEM('Steel','Steel');
#361=PROPERTY_DEFINITION('material property','material name',#575);
#362=PROPERTY_DEFINITION('material property','density of part',#575);
#363=AXIS2_PLACEMENT_3D('',#470,#384,#385);
#364=AXIS2_PLACEMENT_3D('',#471,#386,#387);
#365=AXIS2_PLACEMENT_3D('',#480,#392,#393);
#366=AXIS2_PLACEMENT_3D('',#486,#397,#398);
#367=AXIS2_PLACEMENT_3D('',#492,#402,#403);
#368=AXIS2_PLACEMENT_3D('',#495,#406,#407);
#369=AXIS2_PLACEMENT_3D('',#504,#412,#413);
#370=AXIS2_PLACEMENT_3D('',#510,#417,#418);
#371=AXIS2_PLACEMENT_3D('',#516,#422,#423);
#372=AXIS2_PLACEMENT_3D('',#519,#426,#427);
#373=AXIS2_PLACEMENT_3D('',#520,#428,#429);
#374=AXIS2_PLACEMENT_3D('',#521,#430,#431);
#375=AXIS2_PLACEMENT_3D('',#530,#436,#437);
#376=AXIS2_PLACEMENT_3D('',#536,#441,#442);
#377=AXIS2_PLACEMENT_3D('',#542,#446,#447);
#378=AXIS2_PLACEMENT_3D('',#545,#450,#451);
#379=AXIS2_PLACEMENT_3D('',#551,#455,#456);
#380=AXIS2_PLACEMENT_3D('',#555,#459,#460);
#381=AXIS2_PLACEMENT_3D('',#556,#461,#462);
#382=AXIS2_PLACEMENT_3D('',#560,#465,#466);
#383=AXIS2_PLACEMENT_3D('',#562,#468,#469);
#384=DIRECTION('axis',(0.,0.,1.));
#385=DIRECTION('refdir',(1.,0.,0.));
#386=DIRECTION('center_axis',(-1.,0.,0.));
#387=DIRECTION('ref_axis',(0.,-1.,0.));
#388=DIRECTION('',(0.,-1.,0.));
#389=DIRECTION('',(0.,0.,1.));
#390=DIRECTION('',(0.,-1.,0.));
#391=DIRECTION('',(0.,0.,1.));
#392=DIRECTION('center_axis',(0.,-1.,0.));
#393=DIRECTION('ref_axis',(1.,0.,0.));
#394=DIRECTION('',(1.,0.,0.));
#395=DIRECTION('',(1.,0.,0.));
#396=DIRECTION('',(0.,0.,1.));
#397=DIRECTION('center_axis',(1.,0.,0.));
#398=DIRECTION('ref_axis',(0.,1.,0.));
#399=DIRECTION('',(0.,1.,0.));
#400=DIRECTION('',(0.,1.,0.));
#401=DIRECTION('',(0.,0.,1.));
#402=DIRECTION('center_axis',(0.,1.,0.));
#403=DIRECTION('ref_axis',(-1.,0.,0.));
#404=DIRECTION('',(-1.,0.,0.));
#405=DIRECTION('',(-1.,0.,0.));
#406=DIRECTION('center_axis',(-1.,0.,0.));
#407=DIRECTION('ref_axis',(0.,-1.,0.));
#408=DIRECTION('',(0.,1.,0.));
#409=DIRECTION('',(0.,0.,1.));
#410=DIRECTION('',(0.,-1.,0.));
#411=DIRECTION('',(0.,0.,1.));
#412=DIRECTION('center_axis',(0.,1.,0.));
#413=DIRECTION('ref_axis',(-1.,0.,0.));
#414=DIRECTION('',(1.,0.,0.));
#415=DIRECTION('',(-1.,0.,0.));
#416=DIRECTION('',(0.,0.,1.));
#417=DIRECTION('center_axis',(1.,0.,0.));
#418=DIRECTION('ref_axis',(0.,1.,0.));
#419=DIRECTION('',(0.,-1.,0.));
#420=DIRECTION('',(0.,1.,0.));
#421=DIRECTION('',(0.,0.,1.));
#422=DIRECTION('center_axis',(0.,-1.,0.));
#423=DIRECTION('ref_axis',(1.,0.,0.));
#424=DIRECTION('',(-1.,0.,0.));
#425=DIRECTION('',(1.,0.,0.));
#426=DIRECTION('center_axis',(0.,0.,1.));
#427=DIRECTION('ref_axis',(1.,0.,0.));
#428=DIRECTION('center_axis',(0.,0.,1.));
#429=DIRECTION('ref_axis',(1.,0.,0.));
#430=DIRECTION('center_axis',(-0.707106781186548,0.,-0.707106781186547));
#431=DIRECTION('ref_axis',(-0.707106781186547,0.,0.707106781186548));
#432=DIRECTION('',(0.,-1.,0.));
#433=DIRECTION('',(-0.577350269189626,-0.577350269189626,0.577350269189626));
#434=DIRECTION('',(0.,1.,0.));
#435=DIRECTION('',(-0.577350269189626,0.577350269189626,0.577350269189626));
#436=DIRECTION('center_axis',(0.,-0.707106781186548,-0.707106781186547));
#437=DIRECTION('ref_axis',(-1.,0.,0.));
#438=DIRECTION('',(1.,0.,0.));
#439=DIRECTION('',(0.577350269189626,-0.577350269189626,0.577350269189626));
#440=DIRECTION('',(-1.,0.,0.));
#441=DIRECTION('center_axis',(0.707106781186548,0.,-0.707106781186547));
#442=DIRECTION('ref_axis',(-0.707106781186547,0.,-0.707106781186548));
#443=DIRECTION('',(0.,1.,0.));
#444=DIRECTION('',(0.577350269189626,0.577350269189626,0.577350269189626));
#445=DIRECTION('',(0.,-1.,0.));
#446=DIRECTION('center_axis',(0.,0.707106781186548,-0.707106781186547));
#447=DIRECTION('ref_axis',(-1.,0.,0.));
#448=DIRECTION('',(1.,0.,0.));
#449=DIRECTION('',(-1.,0.,0.));
#450=DIRECTION('center_axis',(0.,1.,0.));
#451=DIRECTION('ref_axis',(1.,0.,0.));
#452=DIRECTION('',(0.,0.,-1.));
#453=DIRECTION('',(1.,0.,0.));
#454=DIRECTION('',(0.,0.,-1.));
#455=DIRECTION('center_axis',(-1.,0.,0.));
#456=DIRECTION('ref_axis',(0.,1.,0.));
#457=DIRECTION('',(0.,0.,-1.));
#458=DIRECTION('',(0.,1.,0.));
#459=DIRECTION('center_axis',(0.,0.,-1.));
#460=DIRECTION('ref_axis',(-1.,0.,0.));
#461=DIRECTION('center_axis',(1.,0.,0.));
#462=DIRECTION('ref_axis',(0.,-1.,0.));
#463=DIRECTION('',(0.,-1.,0.));
#464=DIRECTION('',(0.,0.,-1.));
#465=DIRECTION('center_axis',(0.,-1.,0.));
#466=DIRECTION('ref_axis',(-1.,0.,0.));
#467=DIRECTION('',(-1.,0.,0.));
#468=DIRECTION('center_axis',(0.,0.,1.));
#469=DIRECTION('ref_axis',(1.,0.,0.));
#470=CARTESIAN_POINT('',(0.,0.,0.));
#471=CARTESIAN_POINT('Origin',(8.805,8.805,0.));
#472=CARTESIAN_POINT('',(8.805,8.805,0.));
#473=CARTESIAN_POINT('',(8.805,-8.805,0.));
#474=CARTESIAN_POINT('',(8.805,8.805,0.));
#475=CARTESIAN_POINT('',(8.805,-8.805,19.));
#476=CARTESIAN_POINT('',(8.805,-8.805,0.));
#477=CARTESIAN_POINT('',(8.805,8.805,19.));
#478=CARTESIAN_POINT('',(8.805,8.805,19.));
#479=CARTESIAN_POINT('',(8.805,8.805,0.));
#480=CARTESIAN_POINT('Origin',(-8.805,8.805,0.));
#481=CARTESIAN_POINT('',(-8.805,8.805,0.));
#482=CARTESIAN_POINT('',(-8.805,8.805,0.));
#483=CARTESIAN_POINT('',(-8.805,8.805,19.));
#484=CARTESIAN_POINT('',(-8.805,8.805,19.));
#485=CARTESIAN_POINT('',(-8.805,8.805,0.));
#486=CARTESIAN_POINT('Origin',(-8.805,-8.805,0.));
#487=CARTESIAN_POINT('',(-8.805,-8.805,0.));
#488=CARTESIAN_POINT('',(-8.805,-8.805,0.));
#489=CARTESIAN_POINT('',(-8.805,-8.805,19.));
#490=CARTESIAN_POINT('',(-8.805,-8.805,19.));
#491=CARTESIAN_POINT('',(-8.805,-8.805,0.));
#492=CARTESIAN_POINT('Origin',(8.805,-8.805,0.));
#493=CARTESIAN_POINT('',(8.805,-8.805,0.));
#494=CARTESIAN_POINT('',(8.805,-8.805,19.));
#495=CARTESIAN_POINT('Origin',(-10.805,10.805,0.));
#496=CARTESIAN_POINT('',(-10.805,-10.805,0.));
#497=CARTESIAN_POINT('',(-10.805,10.805,0.));
#498=CARTESIAN_POINT('',(-10.805,-10.805,0.));
#499=CARTESIAN_POINT('',(-10.805,-10.805,19.));
#500=CARTESIAN_POINT('',(-10.805,-10.805,0.));
#501=CARTESIAN_POINT('',(-10.805,10.805,19.));
#502=CARTESIAN_POINT('',(-10.805,-10.805,19.));
#503=CARTESIAN_POINT('',(-10.805,10.805,0.));
#504=CARTESIAN_POINT('Origin',(10.805,10.805,0.));
#505=CARTESIAN_POINT('',(10.805,10.805,0.));
#506=CARTESIAN_POINT('',(-10.805,10.805,0.));
#507=CARTESIAN_POINT('',(10.805,10.805,19.));
#508=CARTESIAN_POINT('',(-10.805,10.805,19.));
#509=CARTESIAN_POINT('',(10.805,10.805,0.));
#510=CARTESIAN_POINT('Origin',(10.805,-10.805,0.));
#511=CARTESIAN_POINT('',(10.805,-10.805,0.));
#512=CARTESIAN_POINT('',(10.805,10.805,0.));
#513=CARTESIAN_POINT('',(10.805,-10.805,19.));
#514=CARTESIAN_POINT('',(10.805,10.805,19.));
#515=CARTESIAN_POINT('',(10.805,-10.805,0.));
#516=CARTESIAN_POINT('Origin',(-10.805,-10.805,0.));
#517=CARTESIAN_POINT('',(10.805,-10.805,0.));
#518=CARTESIAN_POINT('',(10.805,-10.805,19.));
#519=CARTESIAN_POINT('Origin',(0.,0.,19.));
#520=CARTESIAN_POINT('Origin',(0.,0.,0.));
#521=CARTESIAN_POINT('Origin',(-11.7,-6.35,-3.));
#522=CARTESIAN_POINT('',(-10.7,10.7,-4.));
#523=CARTESIAN_POINT('',(-10.7,-10.7,-4.));
#524=CARTESIAN_POINT('',(-10.7,-6.35,-4.));
#525=CARTESIAN_POINT('',(-12.7,-12.7,-2.));
#526=CARTESIAN_POINT('',(-10.7,-10.7,-4.));
#527=CARTESIAN_POINT('',(-12.7,12.7,-2.));
#528=CARTESIAN_POINT('',(-12.7,-6.35,-2.));
#529=CARTESIAN_POINT('',(-10.7,10.7,-4.));
#530=CARTESIAN_POINT('Origin',(6.35,-11.7,-3.));
#531=CARTESIAN_POINT('',(10.7,-10.7,-4.));
#532=CARTESIAN_POINT('',(6.35,-10.7,-4.));
#533=CARTESIAN_POINT('',(12.7,-12.7,-2.));
#534=CARTESIAN_POINT('',(10.7,-10.7,-4.));
#535=CARTESIAN_POINT('',(6.35,-12.7,-2.));
#536=CARTESIAN_POINT('Origin',(11.7,6.35,-3.));
#537=CARTESIAN_POINT('',(10.7,10.7,-4.));
#538=CARTESIAN_POINT('',(10.7,6.35,-4.));
#539=CARTESIAN_POINT('',(12.7,12.7,-2.));
#540=CARTESIAN_POINT('',(10.7,10.7,-4.));
#541=CARTESIAN_POINT('',(12.7,6.35,-2.));
#542=CARTESIAN_POINT('Origin',(-6.35,11.7,-3.));
#543=CARTESIAN_POINT('',(-6.35,12.7,-2.));
#544=CARTESIAN_POINT('',(-6.35,10.7,-4.));
#545=CARTESIAN_POINT('Origin',(-12.7,12.7,0.));
#546=CARTESIAN_POINT('',(-12.7,12.7,0.));
#547=CARTESIAN_POINT('',(-12.7,12.7,0.));
#548=CARTESIAN_POINT('',(12.7,12.7,0.));
#549=CARTESIAN_POINT('',(-12.7,12.7,0.));
#550=CARTESIAN_POINT('',(12.7,12.7,0.));
#551=CARTESIAN_POINT('Origin',(-12.7,-12.7,0.));
#552=CARTESIAN_POINT('',(-12.7,-12.7,0.));
#553=CARTESIAN_POINT('',(-12.7,-12.7,0.));
#554=CARTESIAN_POINT('',(-12.7,-12.7,0.));
#555=CARTESIAN_POINT('Origin',(0.,0.,-4.));
#556=CARTESIAN_POINT('Origin',(12.7,12.7,0.));
#557=CARTESIAN_POINT('',(12.7,-12.7,0.));
#558=CARTESIAN_POINT('',(12.7,12.7,0.));
#559=CARTESIAN_POINT('',(12.7,-12.7,0.));
#560=CARTESIAN_POINT('Origin',(12.7,-12.7,0.));
#561=CARTESIAN_POINT('',(12.7,-12.7,0.));
#562=CARTESIAN_POINT('Origin',(0.,0.,0.));
#563=UNCERTAINTY_MEASURE_WITH_UNIT(LENGTH_MEASURE(0.01),#567,
'DISTANCE_ACCURACY_VALUE',
'Maximum model space distance between geometric entities at asserted c
onnectivities');
#564=UNCERTAINTY_MEASURE_WITH_UNIT(LENGTH_MEASURE(0.01),#567,
'DISTANCE_ACCURACY_VALUE',
'Maximum model space distance between geometric entities at asserted c
onnectivities');
#565=(
GEOMETRIC_REPRESENTATION_CONTEXT(3)
GLOBAL_UNCERTAINTY_ASSIGNED_CONTEXT((#563))
GLOBAL_UNIT_ASSIGNED_CONTEXT((#567,#569,#570))
REPRESENTATION_CONTEXT('','3D')
);
#566=(
GEOMETRIC_REPRESENTATION_CONTEXT(3)
GLOBAL_UNCERTAINTY_ASSIGNED_CONTEXT((#564))
GLOBAL_UNIT_ASSIGNED_CONTEXT((#567,#569,#570))
REPRESENTATION_CONTEXT('','3D')
);
#567=(
LENGTH_UNIT()
NAMED_UNIT(*)
SI_UNIT(.MILLI.,.METRE.)
);
#568=(
LENGTH_UNIT()
NAMED_UNIT(*)
SI_UNIT($,.METRE.)
);
#569=(
NAMED_UNIT(*)
PLANE_ANGLE_UNIT()
SI_UNIT($,.RADIAN.)
);
#570=(
NAMED_UNIT(*)
SI_UNIT($,.STERADIAN.)
SOLID_ANGLE_UNIT()
);
#571=SHAPE_DEFINITION_REPRESENTATION(#572,#573);
#572=PRODUCT_DEFINITION_SHAPE('',$,#575);
#573=SHAPE_REPRESENTATION('',(#363),#565);
#574=PRODUCT_DEFINITION_CONTEXT('part definition',#579,'design');
#575=PRODUCT_DEFINITION('14 Gauge Steel Tubing Cap',
'14 Gauge Steel Tubing Cap v1',#576,#574);
#576=PRODUCT_DEFINITION_FORMATION('',$,#581);
#577=PRODUCT_RELATED_PRODUCT_CATEGORY('14 Gauge Steel Tubing Cap v1',
'14 Gauge Steel Tubing Cap v1',(#581));
#578=APPLICATION_PROTOCOL_DEFINITION('international standard',
'automotive_design',2009,#579);
#579=APPLICATION_CONTEXT(
'Core Data for Automotive Mechanical Design Process');
#580=PRODUCT_CONTEXT('part definition',#579,'mechanical');
#581=PRODUCT('14 Gauge Steel Tubing Cap','14 Gauge Steel Tubing Cap v1',
$,(#580));
#582=PRESENTATION_STYLE_ASSIGNMENT((#583));
#583=SURFACE_STYLE_USAGE(.BOTH.,#584);
#584=SURFACE_SIDE_STYLE('',(#585));
#585=SURFACE_STYLE_FILL_AREA(#586);
#586=FILL_AREA_STYLE('Steel - Satin',(#587));
#587=FILL_AREA_STYLE_COLOUR('Steel - Satin',#588);
#588=COLOUR_RGB('Steel - Satin',0.627450980392157,0.627450980392157,0.627450980392157);
ENDSEC;
END-ISO-10303-21;
