ISO-10303-21;
HEADER;
/* Generated by software containing ST-Developer
 * from STEP Tools, Inc. (www.steptools.com) 
 */

FILE_DESCRIPTION(
/* description */ (''),
/* implementation_level */ '2;1');

FILE_NAME(
/* name */ 'Sprocket Case.step',
/* time_stamp */ '2026-07-18T21:40:30-06:00',
/* author */ (''),
/* organization */ (''),
/* preprocessor_version */ 'ST-DEVELOPER v20.1',
/* originating_system */ 'Autodesk Translation Framework v15.8.0.0',
/* authorisation */ '');

FILE_SCHEMA (('AUTOMOTIVE_DESIGN { 1 0 10303 214 3 1 1 }'));
ENDSEC;

DATA;
#10=MECHANICAL_DESIGN_GEOMETRIC_PRESENTATION_REPRESENTATION('',(#13),#448);
#11=SHAPE_REPRESENTATION_RELATIONSHIP('SRR','None',#455,#12);
#12=ADVANCED_BREP_SHAPE_REPRESENTATION('',(#14),#447);
#13=STYLED_ITEM('',(#464),#14);
#14=MANIFOLD_SOLID_BREP('Body1',#260);
#15=CYLINDRICAL_SURFACE('',#282,14.7);
#16=CYLINDRICAL_SURFACE('',#290,12.7);
#17=CYLINDRICAL_SURFACE('',#294,118.11);
#18=CYLINDRICAL_SURFACE('',#296,120.11);
#19=FACE_BOUND('',#52,.T.);
#20=FACE_BOUND('',#59,.T.);
#21=FACE_BOUND('',#62,.T.);
#22=FACE_BOUND('',#66,.T.);
#23=CIRCLE('',#278,120.11);
#24=CIRCLE('',#279,14.7);
#25=CIRCLE('',#281,12.7);
#26=CIRCLE('',#283,14.7);
#27=CIRCLE('',#288,12.7);
#28=CIRCLE('',#289,12.7);
#29=CIRCLE('',#291,12.7);
#30=CIRCLE('',#293,118.11);
#31=CIRCLE('',#295,118.11);
#32=CIRCLE('',#297,120.11);
#33=FACE_OUTER_BOUND('',#48,.T.);
#34=FACE_OUTER_BOUND('',#49,.T.);
#35=FACE_OUTER_BOUND('',#50,.T.);
#36=FACE_OUTER_BOUND('',#51,.T.);
#37=FACE_OUTER_BOUND('',#53,.T.);
#38=FACE_OUTER_BOUND('',#54,.T.);
#39=FACE_OUTER_BOUND('',#55,.T.);
#40=FACE_OUTER_BOUND('',#56,.T.);
#41=FACE_OUTER_BOUND('',#57,.T.);
#42=FACE_OUTER_BOUND('',#58,.T.);
#43=FACE_OUTER_BOUND('',#60,.T.);
#44=FACE_OUTER_BOUND('',#61,.T.);
#45=FACE_OUTER_BOUND('',#63,.T.);
#46=FACE_OUTER_BOUND('',#64,.T.);
#47=FACE_OUTER_BOUND('',#65,.T.);
#48=EDGE_LOOP('',(#168,#169,#170,#171));
#49=EDGE_LOOP('',(#172,#173,#174,#175));
#50=EDGE_LOOP('',(#176,#177,#178,#179));
#51=EDGE_LOOP('',(#180));
#52=EDGE_LOOP('',(#181,#182,#183,#184));
#53=EDGE_LOOP('',(#185,#186,#187,#188));
#54=EDGE_LOOP('',(#189,#190,#191,#192));
#55=EDGE_LOOP('',(#193,#194,#195,#196));
#56=EDGE_LOOP('',(#197,#198,#199,#200));
#57=EDGE_LOOP('',(#201,#202,#203,#204));
#58=EDGE_LOOP('',(#205,#206,#207,#208));
#59=EDGE_LOOP('',(#209,#210,#211,#212,#213));
#60=EDGE_LOOP('',(#214,#215,#216,#217,#218,#219,#220,#221));
#61=EDGE_LOOP('',(#222));
#62=EDGE_LOOP('',(#223));
#63=EDGE_LOOP('',(#224,#225,#226,#227));
#64=EDGE_LOOP('',(#228,#229,#230,#231));
#65=EDGE_LOOP('',(#232));
#66=EDGE_LOOP('',(#233));
#67=LINE('',#378,#90);
#68=LINE('',#380,#91);
#69=LINE('',#382,#92);
#70=LINE('',#383,#93);
#71=LINE('',#386,#94);
#72=LINE('',#388,#95);
#73=LINE('',#389,#96);
#74=LINE('',#392,#97);
#75=LINE('',#394,#98);
#76=LINE('',#395,#99);
#77=LINE('',#403,#100);
#78=LINE('',#405,#101);
#79=LINE('',#408,#102);
#80=LINE('',#414,#103);
#81=LINE('',#415,#104);
#82=LINE('',#416,#105);
#83=LINE('',#419,#106);
#84=LINE('',#421,#107);
#85=LINE('',#422,#108);
#86=LINE('',#424,#109);
#87=LINE('',#432,#110);
#88=LINE('',#439,#111);
#89=LINE('',#443,#112);
#90=VECTOR('',#303,10.);
#91=VECTOR('',#304,10.);
#92=VECTOR('',#305,10.);
#93=VECTOR('',#306,10.);
#94=VECTOR('',#309,10.);
#95=VECTOR('',#310,10.);
#96=VECTOR('',#311,10.);
#97=VECTOR('',#314,10.);
#98=VECTOR('',#315,10.);
#99=VECTOR('',#316,10.);
#100=VECTOR('',#325,10.);
#101=VECTOR('',#326,10.);
#102=VECTOR('',#329,10.);
#103=VECTOR('',#336,10.);
#104=VECTOR('',#337,10.);
#105=VECTOR('',#338,10.);
#106=VECTOR('',#341,10.);
#107=VECTOR('',#342,10.);
#108=VECTOR('',#343,10.);
#109=VECTOR('',#346,10.);
#110=VECTOR('',#357,12.7);
#111=VECTOR('',#366,118.11);
#112=VECTOR('',#371,120.11);
#113=VERTEX_POINT('',#376);
#114=VERTEX_POINT('',#377);
#115=VERTEX_POINT('',#379);
#116=VERTEX_POINT('',#381);
#117=VERTEX_POINT('',#385);
#118=VERTEX_POINT('',#387);
#119=VERTEX_POINT('',#391);
#120=VERTEX_POINT('',#393);
#121=VERTEX_POINT('',#397);
#122=VERTEX_POINT('',#401);
#123=VERTEX_POINT('',#402);
#124=VERTEX_POINT('',#404);
#125=VERTEX_POINT('',#406);
#126=VERTEX_POINT('',#412);
#127=VERTEX_POINT('',#413);
#128=VERTEX_POINT('',#418);
#129=VERTEX_POINT('',#420);
#130=VERTEX_POINT('',#426);
#131=VERTEX_POINT('',#430);
#132=VERTEX_POINT('',#434);
#133=VERTEX_POINT('',#437);
#134=VERTEX_POINT('',#441);
#135=EDGE_CURVE('',#113,#114,#67,.T.);
#136=EDGE_CURVE('',#115,#113,#68,.T.);
#137=EDGE_CURVE('',#116,#115,#69,.T.);
#138=EDGE_CURVE('',#114,#116,#70,.T.);
#139=EDGE_CURVE('',#114,#117,#71,.T.);
#140=EDGE_CURVE('',#118,#116,#72,.T.);
#141=EDGE_CURVE('',#117,#118,#73,.T.);
#142=EDGE_CURVE('',#117,#119,#74,.T.);
#143=EDGE_CURVE('',#120,#118,#75,.T.);
#144=EDGE_CURVE('',#119,#120,#76,.T.);
#145=EDGE_CURVE('',#121,#121,#23,.T.);
#146=EDGE_CURVE('',#119,#113,#24,.T.);
#147=EDGE_CURVE('',#122,#123,#77,.T.);
#148=EDGE_CURVE('',#123,#124,#78,.T.);
#149=EDGE_CURVE('',#124,#125,#25,.T.);
#150=EDGE_CURVE('',#125,#122,#79,.T.);
#151=EDGE_CURVE('',#115,#120,#26,.T.);
#152=EDGE_CURVE('',#126,#127,#80,.T.);
#153=EDGE_CURVE('',#124,#126,#81,.T.);
#154=EDGE_CURVE('',#123,#127,#82,.T.);
#155=EDGE_CURVE('',#128,#125,#83,.T.);
#156=EDGE_CURVE('',#129,#128,#84,.T.);
#157=EDGE_CURVE('',#122,#129,#85,.T.);
#158=EDGE_CURVE('',#127,#129,#86,.T.);
#159=EDGE_CURVE('',#128,#130,#27,.T.);
#160=EDGE_CURVE('',#130,#126,#28,.T.);
#161=EDGE_CURVE('',#131,#131,#29,.T.);
#162=EDGE_CURVE('',#131,#130,#87,.T.);
#163=EDGE_CURVE('',#132,#132,#30,.T.);
#164=EDGE_CURVE('',#133,#133,#31,.T.);
#165=EDGE_CURVE('',#133,#132,#88,.T.);
#166=EDGE_CURVE('',#134,#134,#32,.T.);
#167=EDGE_CURVE('',#134,#121,#89,.T.);
#168=ORIENTED_EDGE('',*,*,#135,.F.);
#169=ORIENTED_EDGE('',*,*,#136,.F.);
#170=ORIENTED_EDGE('',*,*,#137,.F.);
#171=ORIENTED_EDGE('',*,*,#138,.F.);
#172=ORIENTED_EDGE('',*,*,#139,.F.);
#173=ORIENTED_EDGE('',*,*,#138,.T.);
#174=ORIENTED_EDGE('',*,*,#140,.F.);
#175=ORIENTED_EDGE('',*,*,#141,.F.);
#176=ORIENTED_EDGE('',*,*,#142,.F.);
#177=ORIENTED_EDGE('',*,*,#141,.T.);
#178=ORIENTED_EDGE('',*,*,#143,.F.);
#179=ORIENTED_EDGE('',*,*,#144,.F.);
#180=ORIENTED_EDGE('',*,*,#145,.F.);
#181=ORIENTED_EDGE('',*,*,#135,.T.);
#182=ORIENTED_EDGE('',*,*,#139,.T.);
#183=ORIENTED_EDGE('',*,*,#142,.T.);
#184=ORIENTED_EDGE('',*,*,#146,.T.);
#185=ORIENTED_EDGE('',*,*,#147,.T.);
#186=ORIENTED_EDGE('',*,*,#148,.T.);
#187=ORIENTED_EDGE('',*,*,#149,.T.);
#188=ORIENTED_EDGE('',*,*,#150,.T.);
#189=ORIENTED_EDGE('',*,*,#136,.T.);
#190=ORIENTED_EDGE('',*,*,#146,.F.);
#191=ORIENTED_EDGE('',*,*,#144,.T.);
#192=ORIENTED_EDGE('',*,*,#151,.F.);
#193=ORIENTED_EDGE('',*,*,#152,.F.);
#194=ORIENTED_EDGE('',*,*,#153,.F.);
#195=ORIENTED_EDGE('',*,*,#148,.F.);
#196=ORIENTED_EDGE('',*,*,#154,.T.);
#197=ORIENTED_EDGE('',*,*,#150,.F.);
#198=ORIENTED_EDGE('',*,*,#155,.F.);
#199=ORIENTED_EDGE('',*,*,#156,.F.);
#200=ORIENTED_EDGE('',*,*,#157,.F.);
#201=ORIENTED_EDGE('',*,*,#147,.F.);
#202=ORIENTED_EDGE('',*,*,#157,.T.);
#203=ORIENTED_EDGE('',*,*,#158,.F.);
#204=ORIENTED_EDGE('',*,*,#154,.F.);
#205=ORIENTED_EDGE('',*,*,#151,.T.);
#206=ORIENTED_EDGE('',*,*,#143,.T.);
#207=ORIENTED_EDGE('',*,*,#140,.T.);
#208=ORIENTED_EDGE('',*,*,#137,.T.);
#209=ORIENTED_EDGE('',*,*,#158,.T.);
#210=ORIENTED_EDGE('',*,*,#156,.T.);
#211=ORIENTED_EDGE('',*,*,#159,.T.);
#212=ORIENTED_EDGE('',*,*,#160,.T.);
#213=ORIENTED_EDGE('',*,*,#152,.T.);
#214=ORIENTED_EDGE('',*,*,#161,.F.);
#215=ORIENTED_EDGE('',*,*,#162,.T.);
#216=ORIENTED_EDGE('',*,*,#159,.F.);
#217=ORIENTED_EDGE('',*,*,#155,.T.);
#218=ORIENTED_EDGE('',*,*,#149,.F.);
#219=ORIENTED_EDGE('',*,*,#153,.T.);
#220=ORIENTED_EDGE('',*,*,#160,.F.);
#221=ORIENTED_EDGE('',*,*,#162,.F.);
#222=ORIENTED_EDGE('',*,*,#163,.F.);
#223=ORIENTED_EDGE('',*,*,#161,.T.);
#224=ORIENTED_EDGE('',*,*,#164,.F.);
#225=ORIENTED_EDGE('',*,*,#165,.T.);
#226=ORIENTED_EDGE('',*,*,#163,.T.);
#227=ORIENTED_EDGE('',*,*,#165,.F.);
#228=ORIENTED_EDGE('',*,*,#166,.F.);
#229=ORIENTED_EDGE('',*,*,#167,.T.);
#230=ORIENTED_EDGE('',*,*,#145,.T.);
#231=ORIENTED_EDGE('',*,*,#167,.F.);
#232=ORIENTED_EDGE('',*,*,#166,.T.);
#233=ORIENTED_EDGE('',*,*,#164,.T.);
#234=PLANE('',#274);
#235=PLANE('',#275);
#236=PLANE('',#276);
#237=PLANE('',#277);
#238=PLANE('',#280);
#239=PLANE('',#284);
#240=PLANE('',#285);
#241=PLANE('',#286);
#242=PLANE('',#287);
#243=PLANE('',#292);
#244=PLANE('',#298);
#245=ADVANCED_FACE('',(#33),#234,.T.);
#246=ADVANCED_FACE('',(#34),#235,.T.);
#247=ADVANCED_FACE('',(#35),#236,.T.);
#248=ADVANCED_FACE('',(#36,#19),#237,.F.);
#249=ADVANCED_FACE('',(#37),#238,.F.);
#250=ADVANCED_FACE('',(#38),#15,.T.);
#251=ADVANCED_FACE('',(#39),#239,.F.);
#252=ADVANCED_FACE('',(#40),#240,.F.);
#253=ADVANCED_FACE('',(#41),#241,.F.);
#254=ADVANCED_FACE('',(#42,#20),#242,.F.);
#255=ADVANCED_FACE('',(#43),#16,.F.);
#256=ADVANCED_FACE('',(#44,#21),#243,.T.);
#257=ADVANCED_FACE('',(#45),#17,.F.);
#258=ADVANCED_FACE('',(#46),#18,.T.);
#259=ADVANCED_FACE('',(#47,#22),#244,.T.);
#260=CLOSED_SHELL('',(#245,#246,#247,#248,#249,#250,#251,#252,#253,#254,
#255,#256,#257,#258,#259));
#261=DERIVED_UNIT_ELEMENT(#263,1.);
#262=DERIVED_UNIT_ELEMENT(#450,-3.);
#263=(
MASS_UNIT()
NAMED_UNIT(*)
SI_UNIT(.KILO.,.GRAM.)
);
#264=DERIVED_UNIT((#261,#262));
#265=MEASURE_REPRESENTATION_ITEM('density measure',
POSITIVE_RATIO_MEASURE(7850.),#264);
#266=PROPERTY_DEFINITION_REPRESENTATION(#271,#268);
#267=PROPERTY_DEFINITION_REPRESENTATION(#272,#269);
#268=REPRESENTATION('material name',(#270),#447);
#269=REPRESENTATION('density',(#265),#447);
#270=DESCRIPTIVE_REPRESENTATION_ITEM('Steel','Steel');
#271=PROPERTY_DEFINITION('material property','material name',#457);
#272=PROPERTY_DEFINITION('material property','density of part',#457);
#273=AXIS2_PLACEMENT_3D('',#374,#299,#300);
#274=AXIS2_PLACEMENT_3D('',#375,#301,#302);
#275=AXIS2_PLACEMENT_3D('',#384,#307,#308);
#276=AXIS2_PLACEMENT_3D('',#390,#312,#313);
#277=AXIS2_PLACEMENT_3D('',#396,#317,#318);
#278=AXIS2_PLACEMENT_3D('',#398,#319,#320);
#279=AXIS2_PLACEMENT_3D('',#399,#321,#322);
#280=AXIS2_PLACEMENT_3D('',#400,#323,#324);
#281=AXIS2_PLACEMENT_3D('',#407,#327,#328);
#282=AXIS2_PLACEMENT_3D('',#409,#330,#331);
#283=AXIS2_PLACEMENT_3D('',#410,#332,#333);
#284=AXIS2_PLACEMENT_3D('',#411,#334,#335);
#285=AXIS2_PLACEMENT_3D('',#417,#339,#340);
#286=AXIS2_PLACEMENT_3D('',#423,#344,#345);
#287=AXIS2_PLACEMENT_3D('',#425,#347,#348);
#288=AXIS2_PLACEMENT_3D('',#427,#349,#350);
#289=AXIS2_PLACEMENT_3D('',#428,#351,#352);
#290=AXIS2_PLACEMENT_3D('',#429,#353,#354);
#291=AXIS2_PLACEMENT_3D('',#431,#355,#356);
#292=AXIS2_PLACEMENT_3D('',#433,#358,#359);
#293=AXIS2_PLACEMENT_3D('',#435,#360,#361);
#294=AXIS2_PLACEMENT_3D('',#436,#362,#363);
#295=AXIS2_PLACEMENT_3D('',#438,#364,#365);
#296=AXIS2_PLACEMENT_3D('',#440,#367,#368);
#297=AXIS2_PLACEMENT_3D('',#442,#369,#370);
#298=AXIS2_PLACEMENT_3D('',#444,#372,#373);
#299=DIRECTION('axis',(0.,0.,1.));
#300=DIRECTION('refdir',(1.,0.,0.));
#301=DIRECTION('center_axis',(-1.,0.,0.));
#302=DIRECTION('ref_axis',(0.,1.,0.));
#303=DIRECTION('',(0.,-1.,0.));
#304=DIRECTION('',(0.,0.,1.));
#305=DIRECTION('',(0.,1.,0.));
#306=DIRECTION('',(0.,0.,-1.));
#307=DIRECTION('center_axis',(0.,-1.,0.));
#308=DIRECTION('ref_axis',(-1.,0.,0.));
#309=DIRECTION('',(1.,0.,0.));
#310=DIRECTION('',(-1.,0.,0.));
#311=DIRECTION('',(0.,0.,-1.));
#312=DIRECTION('center_axis',(1.,0.,0.));
#313=DIRECTION('ref_axis',(0.,-1.,0.));
#314=DIRECTION('',(0.,1.,0.));
#315=DIRECTION('',(0.,-1.,0.));
#316=DIRECTION('',(0.,0.,-1.));
#317=DIRECTION('center_axis',(0.,0.,1.));
#318=DIRECTION('ref_axis',(1.,0.,0.));
#319=DIRECTION('center_axis',(0.,0.,1.));
#320=DIRECTION('ref_axis',(1.,0.,0.));
#321=DIRECTION('center_axis',(0.,0.,1.));
#322=DIRECTION('ref_axis',(1.,0.,0.));
#323=DIRECTION('center_axis',(0.,0.,1.));
#324=DIRECTION('ref_axis',(1.,0.,0.));
#325=DIRECTION('',(-1.,0.,0.));
#326=DIRECTION('',(0.,1.,0.));
#327=DIRECTION('center_axis',(0.,0.,1.));
#328=DIRECTION('ref_axis',(-1.,0.,0.));
#329=DIRECTION('',(0.,-1.,0.));
#330=DIRECTION('center_axis',(0.,0.,-1.));
#331=DIRECTION('ref_axis',(-1.83697019872103E-16,1.,0.));
#332=DIRECTION('center_axis',(0.,0.,-1.));
#333=DIRECTION('ref_axis',(1.,0.,0.));
#334=DIRECTION('center_axis',(-1.,0.,0.));
#335=DIRECTION('ref_axis',(0.,1.,0.));
#336=DIRECTION('',(0.,-1.,0.));
#337=DIRECTION('',(0.,0.,-1.));
#338=DIRECTION('',(0.,0.,-1.));
#339=DIRECTION('center_axis',(1.,0.,0.));
#340=DIRECTION('ref_axis',(0.,-1.,0.));
#341=DIRECTION('',(0.,0.,1.));
#342=DIRECTION('',(0.,1.,0.));
#343=DIRECTION('',(0.,0.,-1.));
#344=DIRECTION('center_axis',(0.,-1.,0.));
#345=DIRECTION('ref_axis',(-1.,0.,0.));
#346=DIRECTION('',(1.,0.,0.));
#347=DIRECTION('center_axis',(0.,0.,1.));
#348=DIRECTION('ref_axis',(1.,0.,0.));
#349=DIRECTION('center_axis',(0.,0.,1.));
#350=DIRECTION('ref_axis',(1.,0.,0.));
#351=DIRECTION('center_axis',(0.,0.,1.));
#352=DIRECTION('ref_axis',(1.,0.,0.));
#353=DIRECTION('center_axis',(0.,0.,-1.));
#354=DIRECTION('ref_axis',(-1.,0.,0.));
#355=DIRECTION('center_axis',(0.,0.,-1.));
#356=DIRECTION('ref_axis',(-1.,0.,0.));
#357=DIRECTION('',(0.,0.,-1.));
#358=DIRECTION('center_axis',(0.,0.,1.));
#359=DIRECTION('ref_axis',(1.,0.,0.));
#360=DIRECTION('center_axis',(0.,0.,-1.));
#361=DIRECTION('ref_axis',(1.,0.,0.));
#362=DIRECTION('center_axis',(0.,0.,1.));
#363=DIRECTION('ref_axis',(1.,0.,0.));
#364=DIRECTION('center_axis',(0.,0.,-1.));
#365=DIRECTION('ref_axis',(1.,0.,0.));
#366=DIRECTION('',(0.,0.,-1.));
#367=DIRECTION('center_axis',(0.,0.,1.));
#368=DIRECTION('ref_axis',(1.,0.,0.));
#369=DIRECTION('center_axis',(0.,0.,1.));
#370=DIRECTION('ref_axis',(1.,0.,0.));
#371=DIRECTION('',(0.,0.,-1.));
#372=DIRECTION('center_axis',(0.,0.,1.));
#373=DIRECTION('ref_axis',(1.,0.,0.));
#374=CARTESIAN_POINT('',(0.,0.,0.));
#375=CARTESIAN_POINT('Origin',(-4.175,-15.54,0.));
#376=CARTESIAN_POINT('',(-4.175,-14.0946576758714,0.));
#377=CARTESIAN_POINT('',(-4.175,-15.54,0.));
#378=CARTESIAN_POINT('',(-4.175,-7.77,0.));
#379=CARTESIAN_POINT('',(-4.175,-14.0946576758714,-25.4));
#380=CARTESIAN_POINT('',(-4.175,-14.0946576758714,0.));
#381=CARTESIAN_POINT('',(-4.175,-15.54,-25.4));
#382=CARTESIAN_POINT('',(-4.175,-15.54,-25.4));
#383=CARTESIAN_POINT('',(-4.175,-15.54,0.));
#384=CARTESIAN_POINT('Origin',(4.175,-15.54,0.));
#385=CARTESIAN_POINT('',(4.175,-15.54,0.));
#386=CARTESIAN_POINT('',(2.0875,-15.54,0.));
#387=CARTESIAN_POINT('',(4.175,-15.54,-25.4));
#388=CARTESIAN_POINT('',(4.175,-15.54,-25.4));
#389=CARTESIAN_POINT('',(4.175,-15.54,0.));
#390=CARTESIAN_POINT('Origin',(4.175,-14.0946576758714,0.));
#391=CARTESIAN_POINT('',(4.175,-14.0946576758714,0.));
#392=CARTESIAN_POINT('',(4.175,-7.04732883793569,0.));
#393=CARTESIAN_POINT('',(4.175,-14.0946576758714,-25.4));
#394=CARTESIAN_POINT('',(4.175,0.,-25.4));
#395=CARTESIAN_POINT('',(4.175,-14.0946576758714,0.));
#396=CARTESIAN_POINT('Origin',(0.,0.,0.));
#397=CARTESIAN_POINT('',(-120.11,-1.47092327045589E-14,0.));
#398=CARTESIAN_POINT('Origin',(0.,0.,0.));
#399=CARTESIAN_POINT('Origin',(0.,0.,0.));
#400=CARTESIAN_POINT('Origin',(0.,0.,0.));
#401=CARTESIAN_POINT('',(3.175,-14.54,0.));
#402=CARTESIAN_POINT('',(-3.175,-14.54,0.));
#403=CARTESIAN_POINT('',(1.5875,-14.54,0.));
#404=CARTESIAN_POINT('',(-3.175,-12.2967221242085,0.));
#405=CARTESIAN_POINT('',(-3.175,-7.17651334214603,0.));
#406=CARTESIAN_POINT('',(3.175,-12.2967221242086,0.));
#407=CARTESIAN_POINT('Origin',(0.,0.,0.));
#408=CARTESIAN_POINT('',(3.175,-7.27,0.));
#409=CARTESIAN_POINT('Origin',(0.,0.,0.));
#410=CARTESIAN_POINT('Origin',(0.,0.,-25.4));
#411=CARTESIAN_POINT('Origin',(-3.175,-14.54,0.));
#412=CARTESIAN_POINT('',(-3.175,-12.2967221242085,-25.4));
#413=CARTESIAN_POINT('',(-3.175,-14.54,-25.4));
#414=CARTESIAN_POINT('',(-3.175,-14.54,-25.4));
#415=CARTESIAN_POINT('',(-3.175,-12.2967221242085,0.));
#416=CARTESIAN_POINT('',(-3.175,-14.54,0.));
#417=CARTESIAN_POINT('Origin',(3.175,-12.2967221242086,0.));
#418=CARTESIAN_POINT('',(3.175,-12.2967221242086,-25.4));
#419=CARTESIAN_POINT('',(3.175,-12.2967221242085,0.));
#420=CARTESIAN_POINT('',(3.175,-14.54,-25.4));
#421=CARTESIAN_POINT('',(3.175,0.,-25.4));
#422=CARTESIAN_POINT('',(3.175,-14.54,0.));
#423=CARTESIAN_POINT('Origin',(3.175,-14.54,0.));
#424=CARTESIAN_POINT('',(3.175,-14.54,-25.4));
#425=CARTESIAN_POINT('Origin',(0.,0.,-25.4));
#426=CARTESIAN_POINT('',(12.7,-1.55530143491714E-15,-25.4));
#427=CARTESIAN_POINT('Origin',(0.,0.,-25.4));
#428=CARTESIAN_POINT('Origin',(0.,0.,-25.4));
#429=CARTESIAN_POINT('Origin',(0.,0.,3.));
#430=CARTESIAN_POINT('',(12.7,1.55530143491714E-15,3.));
#431=CARTESIAN_POINT('Origin',(0.,0.,3.));
#432=CARTESIAN_POINT('',(12.7,-1.55530143491714E-15,3.));
#433=CARTESIAN_POINT('Origin',(0.,0.,3.));
#434=CARTESIAN_POINT('',(-118.11,-1.44643033447294E-14,3.));
#435=CARTESIAN_POINT('Origin',(0.,0.,3.));
#436=CARTESIAN_POINT('Origin',(0.,0.,0.));
#437=CARTESIAN_POINT('',(-118.11,-1.44643033447294E-14,22.05));
#438=CARTESIAN_POINT('Origin',(0.,0.,22.05));
#439=CARTESIAN_POINT('',(-118.11,-1.44643033447294E-14,0.));
#440=CARTESIAN_POINT('Origin',(0.,0.,0.));
#441=CARTESIAN_POINT('',(-120.11,-1.47092327045589E-14,22.05));
#442=CARTESIAN_POINT('Origin',(0.,0.,22.05));
#443=CARTESIAN_POINT('',(-120.11,-1.47092327045589E-14,0.));
#444=CARTESIAN_POINT('Origin',(0.,0.,22.05));
#445=UNCERTAINTY_MEASURE_WITH_UNIT(LENGTH_MEASURE(0.01),#449,
'DISTANCE_ACCURACY_VALUE',
'Maximum model space distance between geometric entities at asserted c
onnectivities');
#446=UNCERTAINTY_MEASURE_WITH_UNIT(LENGTH_MEASURE(0.01),#449,
'DISTANCE_ACCURACY_VALUE',
'Maximum model space distance between geometric entities at asserted c
onnectivities');
#447=(
GEOMETRIC_REPRESENTATION_CONTEXT(3)
GLOBAL_UNCERTAINTY_ASSIGNED_CONTEXT((#445))
GLOBAL_UNIT_ASSIGNED_CONTEXT((#449,#451,#452))
REPRESENTATION_CONTEXT('','3D')
);
#448=(
GEOMETRIC_REPRESENTATION_CONTEXT(3)
GLOBAL_UNCERTAINTY_ASSIGNED_CONTEXT((#446))
GLOBAL_UNIT_ASSIGNED_CONTEXT((#449,#451,#452))
REPRESENTATION_CONTEXT('','3D')
);
#449=(
LENGTH_UNIT()
NAMED_UNIT(*)
SI_UNIT(.MILLI.,.METRE.)
);
#450=(
LENGTH_UNIT()
NAMED_UNIT(*)
SI_UNIT($,.METRE.)
);
#451=(
NAMED_UNIT(*)
PLANE_ANGLE_UNIT()
SI_UNIT($,.RADIAN.)
);
#452=(
NAMED_UNIT(*)
SI_UNIT($,.STERADIAN.)
SOLID_ANGLE_UNIT()
);
#453=SHAPE_DEFINITION_REPRESENTATION(#454,#455);
#454=PRODUCT_DEFINITION_SHAPE('',$,#457);
#455=SHAPE_REPRESENTATION('',(#273),#447);
#456=PRODUCT_DEFINITION_CONTEXT('part definition',#461,'design');
#457=PRODUCT_DEFINITION('Sprocket Case','Sprocket Case v1',#458,#456);
#458=PRODUCT_DEFINITION_FORMATION('',$,#463);
#459=PRODUCT_RELATED_PRODUCT_CATEGORY('Sprocket Case v1',
'Sprocket Case v1',(#463));
#460=APPLICATION_PROTOCOL_DEFINITION('international standard',
'automotive_design',2009,#461);
#461=APPLICATION_CONTEXT(
'Core Data for Automotive Mechanical Design Process');
#462=PRODUCT_CONTEXT('part definition',#461,'mechanical');
#463=PRODUCT('Sprocket Case','Sprocket Case v1',$,(#462));
#464=PRESENTATION_STYLE_ASSIGNMENT((#465));
#465=SURFACE_STYLE_USAGE(.BOTH.,#466);
#466=SURFACE_SIDE_STYLE('',(#467));
#467=SURFACE_STYLE_FILL_AREA(#468);
#468=FILL_AREA_STYLE('Steel - Satin',(#469));
#469=FILL_AREA_STYLE_COLOUR('Steel - Satin',#470);
#470=COLOUR_RGB('Steel - Satin',0.627450980392157,0.627450980392157,0.627450980392157);
ENDSEC;
END-ISO-10303-21;
